<mxfile host="Electron" modified="2024-07-16T23:57:09.252Z" agent="Mozilla/5.0 (Windows NT 10.0; Win64; x64) AppleWebKit/537.36 (KHTML, like Gecko) draw.io/24.5.3 Chrome/124.0.6367.207 Electron/30.0.6 Safari/537.36" etag="NaGXrvca4V1Ki--fSssO" version="24.5.3" type="device">
  <diagram id="R2lEEEUBdFMjLlhIrx00" name="Page-1">
    <mxGraphModel dx="1240" dy="644" grid="1" gridSize="10" guides="1" tooltips="1" connect="1" arrows="1" fold="1" page="1" pageScale="1" pageWidth="980" pageHeight="1390" background="none" math="0" shadow="0" extFonts="Permanent Marker^https://fonts.googleapis.com/css?family=Permanent+Marker">
      <root>
        <mxCell id="0" />
        <mxCell id="1" parent="0" />
        <mxCell id="MmX11wm5HvuTR1FrTXqp-2" value="Junta" style="shape=ext;margin=3;double=1;whiteSpace=wrap;html=1;align=center;" parent="1" vertex="1">
          <mxGeometry x="615.73" y="200.68" width="100" height="60" as="geometry" />
        </mxCell>
        <mxCell id="MmX11wm5HvuTR1FrTXqp-77" value="id" style="text;html=1;strokeColor=none;fillColor=none;align=left;verticalAlign=middle;whiteSpace=wrap;rounded=0;fontSize=9;" parent="1" vertex="1">
          <mxGeometry x="634.8" y="127.62" width="16.36" height="9.38" as="geometry" />
        </mxCell>
        <mxCell id="MmX11wm5HvuTR1FrTXqp-80" value="" style="endArrow=none;html=1;rounded=0;fontSize=10;entryX=0.1;entryY=-0.012;entryDx=0;entryDy=0;entryPerimeter=0;exitX=0.5;exitY=1;exitDx=0;exitDy=0;" parent="1" source="MmX11wm5HvuTR1FrTXqp-179" target="MmX11wm5HvuTR1FrTXqp-2" edge="1">
          <mxGeometry width="50" height="50" relative="1" as="geometry">
            <mxPoint x="624.97" y="109.06" as="sourcePoint" />
            <mxPoint x="625.14" y="165.56" as="targetPoint" />
          </mxGeometry>
        </mxCell>
        <mxCell id="MmX11wm5HvuTR1FrTXqp-179" value="" style="ellipse;whiteSpace=wrap;html=1;aspect=fixed;fillColor=#000000;strokeColor=#000000;fontColor=#000000;" parent="1" vertex="1">
          <mxGeometry x="620.77" y="126.5" width="11" height="11" as="geometry" />
        </mxCell>
        <mxCell id="MmX11wm5HvuTR1FrTXqp-235" value="Comisión" style="shape=ext;margin=3;double=1;whiteSpace=wrap;html=1;align=center;direction=east;" parent="1" vertex="1">
          <mxGeometry x="467.9999999999999" y="498.06000000000006" width="100" height="60" as="geometry" />
        </mxCell>
        <mxCell id="MmX11wm5HvuTR1FrTXqp-239" value="nombre" style="text;html=1;strokeColor=none;fillColor=none;align=left;verticalAlign=middle;whiteSpace=wrap;rounded=0;fontSize=9;" parent="1" vertex="1">
          <mxGeometry x="384.4999999999999" y="519.3100000000001" width="65" height="10" as="geometry" />
        </mxCell>
        <mxCell id="MmX11wm5HvuTR1FrTXqp-241" value="id" style="text;html=1;strokeColor=none;fillColor=none;align=left;verticalAlign=middle;whiteSpace=wrap;rounded=0;fontSize=9;" parent="1" vertex="1">
          <mxGeometry x="408.2199999999999" y="491.8700000000001" width="73" height="9.38" as="geometry" />
        </mxCell>
        <mxCell id="MmX11wm5HvuTR1FrTXqp-242" value="" style="endArrow=none;html=1;rounded=0;fontSize=10;exitX=1;exitY=0.5;exitDx=0;exitDy=0;entryX=0;entryY=0.231;entryDx=0;entryDy=0;entryPerimeter=0;" parent="1" source="MmX11wm5HvuTR1FrTXqp-254" target="MmX11wm5HvuTR1FrTXqp-235" edge="1">
          <mxGeometry width="50" height="50" relative="1" as="geometry">
            <mxPoint x="557.9999999999999" y="452.80999999999995" as="sourcePoint" />
            <mxPoint x="567.9999999999999" y="511.06000000000006" as="targetPoint" />
          </mxGeometry>
        </mxCell>
        <mxCell id="MmX11wm5HvuTR1FrTXqp-244" value="" style="endArrow=none;html=1;rounded=0;fontSize=10;entryX=0;entryY=0;entryDx=0;entryDy=0;exitX=1;exitY=0.5;exitDx=0;exitDy=0;" parent="1" source="MmX11wm5HvuTR1FrTXqp-250" target="MmX11wm5HvuTR1FrTXqp-235" edge="1">
          <mxGeometry width="50" height="50" relative="1" as="geometry">
            <mxPoint x="557.9999999999999" y="418.05999999999995" as="sourcePoint" />
            <mxPoint x="567.9999999999999" y="498.06000000000006" as="targetPoint" />
          </mxGeometry>
        </mxCell>
        <mxCell id="MmX11wm5HvuTR1FrTXqp-248" value="" style="endArrow=none;html=1;rounded=0;entryX=1;entryY=0.5;entryDx=0;entryDy=0;" parent="1" target="MmX11wm5HvuTR1FrTXqp-253" edge="1">
          <mxGeometry width="50" height="50" relative="1" as="geometry">
            <mxPoint x="468" y="525" as="sourcePoint" />
            <mxPoint x="557.9999999999999" y="463.30999999999995" as="targetPoint" />
          </mxGeometry>
        </mxCell>
        <mxCell id="MmX11wm5HvuTR1FrTXqp-250" value="" style="ellipse;whiteSpace=wrap;html=1;aspect=fixed;fillColor=#000000;strokeColor=#000000;fontColor=#000000;" parent="1" vertex="1">
          <mxGeometry x="420.49999999999966" y="492.8700000000001" width="11" height="11" as="geometry" />
        </mxCell>
        <mxCell id="MmX11wm5HvuTR1FrTXqp-253" value="" style="ellipse;whiteSpace=wrap;html=1;aspect=fixed;fillColor=#FFFFFF;strokeColor=#000000;fontColor=#000000;" parent="1" vertex="1">
          <mxGeometry x="420.4999999999999" y="519.3100000000001" width="11" height="11" as="geometry" />
        </mxCell>
        <mxCell id="MmX11wm5HvuTR1FrTXqp-254" value="" style="ellipse;whiteSpace=wrap;html=1;aspect=fixed;fillColor=#CCCCCC;strokeColor=#000000;fontColor=#000000;" parent="1" vertex="1">
          <mxGeometry x="420.4999999999999" y="506.43000000000006" width="11" height="11" as="geometry" />
        </mxCell>
        <mxCell id="MmX11wm5HvuTR1FrTXqp-262" value="fechaConstitución" style="text;html=1;strokeColor=none;fillColor=none;align=left;verticalAlign=middle;whiteSpace=wrap;rounded=0;fontSize=9;" parent="1" vertex="1">
          <mxGeometry x="345.29000000000013" y="532.5999999999999" width="65" height="12.5" as="geometry" />
        </mxCell>
        <mxCell id="MmX11wm5HvuTR1FrTXqp-272" value="" style="edgeStyle=orthogonalEdgeStyle;rounded=0;orthogonalLoop=1;jettySize=auto;html=1;" parent="1" source="MmX11wm5HvuTR1FrTXqp-263" target="MmX11wm5HvuTR1FrTXqp-235" edge="1">
          <mxGeometry relative="1" as="geometry" />
        </mxCell>
        <mxCell id="5XtZwni91hWJkgiUzxf1-20" style="edgeStyle=orthogonalEdgeStyle;rounded=0;orthogonalLoop=1;jettySize=auto;html=1;exitX=0.5;exitY=0;exitDx=0;exitDy=0;entryX=0.75;entryY=1;entryDx=0;entryDy=0;" parent="1" source="MmX11wm5HvuTR1FrTXqp-263" target="MmX11wm5HvuTR1FrTXqp-2" edge="1">
          <mxGeometry relative="1" as="geometry">
            <Array as="points">
              <mxPoint x="519" y="320" />
              <mxPoint x="691" y="320" />
            </Array>
          </mxGeometry>
        </mxCell>
        <mxCell id="MmX11wm5HvuTR1FrTXqp-263" value="Ju-Com" style="shape=rhombus;perimeter=rhombusPerimeter;whiteSpace=wrap;html=1;align=center;fontStyle=1;fontSize=10;" parent="1" vertex="1">
          <mxGeometry x="488.6199999999998" y="329.67999999999995" width="60" height="60" as="geometry" />
        </mxCell>
        <mxCell id="MmX11wm5HvuTR1FrTXqp-264" value="1:N" style="text;html=1;strokeColor=none;fillColor=none;align=center;verticalAlign=middle;whiteSpace=wrap;rounded=0;fontSize=15;fontStyle=1;direction=east;flipV=0;flipH=0;rotation=90;" parent="1" vertex="1">
          <mxGeometry x="549.4999999999999" y="351.79999999999995" width="22.5" height="15.75" as="geometry" />
        </mxCell>
        <mxCell id="MmX11wm5HvuTR1FrTXqp-265" value="" style="endArrow=none;html=1;rounded=0;fontColor=#000000;strokeColor=#000000;exitX=1;exitY=1;exitDx=0;exitDy=0;entryX=0;entryY=1;entryDx=0;entryDy=0;" parent="1" edge="1">
          <mxGeometry width="50" height="50" relative="1" as="geometry">
            <mxPoint x="533.6199999999998" y="344.67999999999995" as="sourcePoint" />
            <mxPoint x="503.6199999999998" y="344.67999999999995" as="targetPoint" />
          </mxGeometry>
        </mxCell>
        <mxCell id="MmX11wm5HvuTR1FrTXqp-266" value="ID" style="text;html=1;strokeColor=none;fillColor=none;align=center;verticalAlign=middle;whiteSpace=wrap;rounded=0;fontSize=8;fontStyle=1;" parent="1" vertex="1">
          <mxGeometry x="512.9999999999999" y="333.17999999999995" width="11.25" height="12" as="geometry" />
        </mxCell>
        <mxCell id="MmX11wm5HvuTR1FrTXqp-274" value="gestiona" style="text;html=1;strokeColor=none;fillColor=none;align=left;verticalAlign=middle;whiteSpace=wrap;rounded=0;fontSize=9;" parent="1" vertex="1">
          <mxGeometry x="476.2199999999997" y="463.26" width="55" height="12.5" as="geometry" />
        </mxCell>
        <mxCell id="MmX11wm5HvuTR1FrTXqp-275" value="" style="endArrow=none;html=1;rounded=0;entryX=1;entryY=0.5;entryDx=0;entryDy=0;exitX=0.005;exitY=0.683;exitDx=0;exitDy=0;exitPerimeter=0;" parent="1" source="MmX11wm5HvuTR1FrTXqp-235" target="MmX11wm5HvuTR1FrTXqp-276" edge="1">
          <mxGeometry width="50" height="50" relative="1" as="geometry">
            <mxPoint x="464" y="549" as="sourcePoint" />
            <mxPoint x="556.9099999999997" y="561.68" as="targetPoint" />
          </mxGeometry>
        </mxCell>
        <mxCell id="MmX11wm5HvuTR1FrTXqp-276" value="" style="ellipse;whiteSpace=wrap;html=1;aspect=fixed;fillColor=#FFFFFF;strokeColor=#000000;fontColor=#000000;" parent="1" vertex="1">
          <mxGeometry x="420.4999999999999" y="533.35" width="11" height="11" as="geometry" />
        </mxCell>
        <mxCell id="MmX11wm5HvuTR1FrTXqp-277" value="idJunta" style="text;html=1;strokeColor=none;fillColor=none;align=left;verticalAlign=middle;whiteSpace=wrap;rounded=0;fontSize=9;" parent="1" vertex="1">
          <mxGeometry x="386.5" y="503.93" width="33.5" height="12.5" as="geometry" />
        </mxCell>
        <mxCell id="MmX11wm5HvuTR1FrTXqp-278" value="Convocatoria" style="shape=ext;margin=3;double=1;whiteSpace=wrap;html=1;align=center;" parent="1" vertex="1">
          <mxGeometry x="707.1200000000003" y="771.25" width="100" height="60" as="geometry" />
        </mxCell>
        <mxCell id="MmX11wm5HvuTR1FrTXqp-279" value="lugar" style="text;html=1;strokeColor=none;fillColor=none;align=left;verticalAlign=middle;whiteSpace=wrap;rounded=0;fontSize=9;" parent="1" vertex="1">
          <mxGeometry x="829.3700000000003" y="787.25" width="65" height="10" as="geometry" />
        </mxCell>
        <mxCell id="MmX11wm5HvuTR1FrTXqp-280" value="id" style="text;html=1;strokeColor=none;fillColor=none;align=left;verticalAlign=middle;whiteSpace=wrap;rounded=0;fontSize=9;" parent="1" vertex="1">
          <mxGeometry x="829.3700000000003" y="773.8700000000003" width="73" height="9.38" as="geometry" />
        </mxCell>
        <mxCell id="MmX11wm5HvuTR1FrTXqp-281" value="" style="endArrow=none;html=1;rounded=0;fontSize=10;exitX=0;exitY=0.5;exitDx=0;exitDy=0;entryX=0.998;entryY=0.338;entryDx=0;entryDy=0;entryPerimeter=0;" parent="1" source="MmX11wm5HvuTR1FrTXqp-287" edge="1">
          <mxGeometry width="50" height="50" relative="1" as="geometry">
            <mxPoint x="797.1200000000003" y="736" as="sourcePoint" />
            <mxPoint x="806.9200000000005" y="792.53" as="targetPoint" />
          </mxGeometry>
        </mxCell>
        <mxCell id="MmX11wm5HvuTR1FrTXqp-282" value="" style="endArrow=none;html=1;rounded=0;fontSize=10;entryX=1;entryY=0.25;entryDx=0;entryDy=0;exitX=0;exitY=0.5;exitDx=0;exitDy=0;" parent="1" source="MmX11wm5HvuTR1FrTXqp-285" edge="1">
          <mxGeometry width="50" height="50" relative="1" as="geometry">
            <mxPoint x="797.1200000000003" y="698.2500000000002" as="sourcePoint" />
            <mxPoint x="807.1200000000003" y="778.2500000000005" as="targetPoint" />
          </mxGeometry>
        </mxCell>
        <mxCell id="MmX11wm5HvuTR1FrTXqp-283" value="fecha" style="text;html=1;strokeColor=none;fillColor=none;align=left;verticalAlign=middle;whiteSpace=wrap;rounded=0;fontSize=9;" parent="1" vertex="1">
          <mxGeometry x="829.1100000000001" y="801.25" width="65" height="12.5" as="geometry" />
        </mxCell>
        <mxCell id="MmX11wm5HvuTR1FrTXqp-284" value="" style="endArrow=none;html=1;rounded=0;entryX=0;entryY=0.5;entryDx=0;entryDy=0;exitX=1.002;exitY=0.549;exitDx=0;exitDy=0;exitPerimeter=0;" parent="1" target="MmX11wm5HvuTR1FrTXqp-286" edge="1">
          <mxGeometry width="50" height="50" relative="1" as="geometry">
            <mxPoint x="807.3200000000002" y="807.19" as="sourcePoint" />
            <mxPoint x="797.1200000000003" y="750.5" as="targetPoint" />
          </mxGeometry>
        </mxCell>
        <mxCell id="MmX11wm5HvuTR1FrTXqp-285" value="" style="ellipse;whiteSpace=wrap;html=1;aspect=fixed;fillColor=#000000;strokeColor=#000000;fontColor=#000000;" parent="1" vertex="1">
          <mxGeometry x="818.1100000000001" y="772.8700000000003" width="11" height="11" as="geometry" />
        </mxCell>
        <mxCell id="MmX11wm5HvuTR1FrTXqp-286" value="" style="ellipse;whiteSpace=wrap;html=1;aspect=fixed;fillColor=#FFFFFF;strokeColor=#000000;fontColor=#000000;" parent="1" vertex="1">
          <mxGeometry x="818.3700000000003" y="801.75" width="11" height="11" as="geometry" />
        </mxCell>
        <mxCell id="MmX11wm5HvuTR1FrTXqp-287" value="" style="ellipse;whiteSpace=wrap;html=1;aspect=fixed;fillColor=#FFFFFF;strokeColor=#000000;fontColor=#000000;" parent="1" vertex="1">
          <mxGeometry x="818.3700000000003" y="786.8700000000003" width="11" height="11" as="geometry" />
        </mxCell>
        <mxCell id="MmX11wm5HvuTR1FrTXqp-288" value="" style="endArrow=none;html=1;rounded=0;entryX=0;entryY=0.5;entryDx=0;entryDy=0;exitX=1;exitY=0.75;exitDx=0;exitDy=0;" parent="1" target="MmX11wm5HvuTR1FrTXqp-289" edge="1">
          <mxGeometry width="50" height="50" relative="1" as="geometry">
            <mxPoint x="807.1200000000003" y="822.25" as="sourcePoint" />
            <mxPoint x="797.1200000000003" y="768" as="targetPoint" />
          </mxGeometry>
        </mxCell>
        <mxCell id="MmX11wm5HvuTR1FrTXqp-289" value="" style="ellipse;whiteSpace=wrap;html=1;aspect=fixed;fillColor=#FFFFFF;strokeColor=#000000;fontColor=#000000;" parent="1" vertex="1">
          <mxGeometry x="818.3700000000003" y="817.25" width="11" height="11" as="geometry" />
        </mxCell>
        <mxCell id="MmX11wm5HvuTR1FrTXqp-290" value="hora" style="text;html=1;strokeColor=none;fillColor=none;align=left;verticalAlign=middle;whiteSpace=wrap;rounded=0;fontSize=9;" parent="1" vertex="1">
          <mxGeometry x="829.3699999999999" y="816.75" width="65" height="12.5" as="geometry" />
        </mxCell>
        <mxCell id="MZVE_0cD1qcKKRb-JRrY-142" style="edgeStyle=orthogonalEdgeStyle;rounded=0;orthogonalLoop=1;jettySize=auto;html=1;exitX=0.5;exitY=0;exitDx=0;exitDy=0;entryX=1;entryY=0.5;entryDx=0;entryDy=0;" edge="1" parent="1" source="MmX11wm5HvuTR1FrTXqp-292" target="MmX11wm5HvuTR1FrTXqp-235">
          <mxGeometry relative="1" as="geometry" />
        </mxCell>
        <mxCell id="MmX11wm5HvuTR1FrTXqp-292" value="Com-Conv" style="shape=rhombus;perimeter=rhombusPerimeter;whiteSpace=wrap;html=1;align=center;fontStyle=1;fontSize=10;" parent="1" vertex="1">
          <mxGeometry x="685.1100000000001" y="619.8600000000001" width="60" height="60" as="geometry" />
        </mxCell>
        <mxCell id="MmX11wm5HvuTR1FrTXqp-293" value="1:N" style="text;html=1;strokeColor=none;fillColor=none;align=center;verticalAlign=middle;whiteSpace=wrap;rounded=0;fontSize=15;fontStyle=1;rotation=90;" parent="1" vertex="1">
          <mxGeometry x="745.1100000000001" y="640.1100000000001" width="22.5" height="15.75" as="geometry" />
        </mxCell>
        <mxCell id="MmX11wm5HvuTR1FrTXqp-294" value="" style="endArrow=none;html=1;rounded=0;fontColor=#000000;strokeColor=#000000;exitX=1;exitY=1;exitDx=0;exitDy=0;entryX=0;entryY=1;entryDx=0;entryDy=0;" parent="1" edge="1">
          <mxGeometry width="50" height="50" relative="1" as="geometry">
            <mxPoint x="730.1100000000001" y="634.8600000000001" as="sourcePoint" />
            <mxPoint x="700.1100000000001" y="634.8600000000001" as="targetPoint" />
          </mxGeometry>
        </mxCell>
        <mxCell id="MmX11wm5HvuTR1FrTXqp-295" value="ID" style="text;html=1;strokeColor=none;fillColor=none;align=center;verticalAlign=middle;whiteSpace=wrap;rounded=0;fontSize=8;fontStyle=1;" parent="1" vertex="1">
          <mxGeometry x="709.4900000000002" y="623.3600000000001" width="11.25" height="12" as="geometry" />
        </mxCell>
        <mxCell id="MmX11wm5HvuTR1FrTXqp-296" value="convoca" style="text;html=1;strokeColor=none;fillColor=none;align=left;verticalAlign=middle;whiteSpace=wrap;rounded=0;fontSize=9;" parent="1" vertex="1">
          <mxGeometry x="671.48" y="738.9300000000003" width="55" height="12.5" as="geometry" />
        </mxCell>
        <mxCell id="MmX11wm5HvuTR1FrTXqp-297" value="" style="endArrow=none;html=1;rounded=0;entryX=1;entryY=0.5;entryDx=0;entryDy=0;exitX=-0.012;exitY=0.411;exitDx=0;exitDy=0;exitPerimeter=0;dashed=1;" parent="1" source="MmX11wm5HvuTR1FrTXqp-278" target="MmX11wm5HvuTR1FrTXqp-298" edge="1">
          <mxGeometry width="50" height="50" relative="1" as="geometry">
            <mxPoint x="777.8200000000002" y="831.1300000000006" as="sourcePoint" />
            <mxPoint x="778.0300000000002" y="841.8700000000003" as="targetPoint" />
          </mxGeometry>
        </mxCell>
        <mxCell id="MmX11wm5HvuTR1FrTXqp-298" value="" style="ellipse;whiteSpace=wrap;html=1;aspect=fixed;fillColor=#CCCCCC;strokeColor=#000000;fontColor=#000000;" parent="1" vertex="1">
          <mxGeometry x="676.9700000000003" y="790.2400000000004" width="11" height="11" as="geometry" />
        </mxCell>
        <mxCell id="MmX11wm5HvuTR1FrTXqp-299" value="idComisión" style="text;html=1;strokeColor=none;fillColor=none;align=left;verticalAlign=middle;whiteSpace=wrap;rounded=0;fontSize=9;" parent="1" vertex="1">
          <mxGeometry x="625.5300000000002" y="788.7400000000004" width="30.25" height="12.5" as="geometry" />
        </mxCell>
        <mxCell id="MmX11wm5HvuTR1FrTXqp-301" value="es_convocada" style="text;html=1;strokeColor=none;fillColor=none;align=left;verticalAlign=middle;whiteSpace=wrap;rounded=0;fontSize=9;" parent="1" vertex="1">
          <mxGeometry x="726.7299999999998" y="212.56" width="55" height="12.5" as="geometry" />
        </mxCell>
        <mxCell id="MmX11wm5HvuTR1FrTXqp-303" value="(0,N)" style="text;html=1;strokeColor=none;fillColor=none;align=left;verticalAlign=middle;whiteSpace=wrap;rounded=0;fontSize=9;" parent="1" vertex="1">
          <mxGeometry x="491.77999999999963" y="475.76" width="25.5" height="12.5" as="geometry" />
        </mxCell>
        <mxCell id="MmX11wm5HvuTR1FrTXqp-304" value="(1,1)" style="text;html=1;strokeColor=none;fillColor=none;align=left;verticalAlign=middle;whiteSpace=wrap;rounded=0;fontSize=9;" parent="1" vertex="1">
          <mxGeometry x="724.7199999999998" y="229.06" width="25.5" height="12.5" as="geometry" />
        </mxCell>
        <mxCell id="MmX11wm5HvuTR1FrTXqp-305" value="(0,N)" style="text;html=1;strokeColor=none;fillColor=none;align=left;verticalAlign=middle;whiteSpace=wrap;rounded=0;fontSize=9;" parent="1" vertex="1">
          <mxGeometry x="686.9900000000002" y="749.3700000000003" width="25.5" height="12.5" as="geometry" />
        </mxCell>
        <mxCell id="MmX11wm5HvuTR1FrTXqp-306" style="edgeStyle=none;rounded=0;orthogonalLoop=1;jettySize=auto;html=1;exitX=1;exitY=0.5;exitDx=0;exitDy=0;endArrow=none;endFill=0;entryX=0.003;entryY=0.67;entryDx=0;entryDy=0;entryPerimeter=0;" parent="1" source="MmX11wm5HvuTR1FrTXqp-307" target="MmX11wm5HvuTR1FrTXqp-278" edge="1">
          <mxGeometry relative="1" as="geometry">
            <mxPoint x="706" y="814" as="targetPoint" />
          </mxGeometry>
        </mxCell>
        <mxCell id="MmX11wm5HvuTR1FrTXqp-307" value="" style="ellipse;whiteSpace=wrap;html=1;aspect=fixed;fillColor=#CCCCCC;strokeColor=#000000;fontColor=#000000;" parent="1" vertex="1">
          <mxGeometry x="676.9700000000003" y="806" width="11" height="11" as="geometry" />
        </mxCell>
        <mxCell id="MmX11wm5HvuTR1FrTXqp-308" value="idTipo" style="text;html=1;strokeColor=none;fillColor=none;align=left;verticalAlign=middle;whiteSpace=wrap;rounded=0;fontSize=9;" parent="1" vertex="1">
          <mxGeometry x="648.7400000000002" y="806.9800000000004" width="22.74" height="8.75" as="geometry" />
        </mxCell>
        <mxCell id="5XtZwni91hWJkgiUzxf1-22" style="edgeStyle=orthogonalEdgeStyle;rounded=0;orthogonalLoop=1;jettySize=auto;html=1;exitX=0.5;exitY=0;exitDx=0;exitDy=0;entryX=1.009;entryY=0.428;entryDx=0;entryDy=0;entryPerimeter=0;" parent="1" source="MmX11wm5HvuTR1FrTXqp-315" target="MmX11wm5HvuTR1FrTXqp-2" edge="1">
          <mxGeometry relative="1" as="geometry" />
        </mxCell>
        <mxCell id="MmX11wm5HvuTR1FrTXqp-315" value="Ju-Conv" style="shape=rhombus;perimeter=rhombusPerimeter;whiteSpace=wrap;html=1;align=center;fontStyle=1;fontSize=10;" parent="1" vertex="1">
          <mxGeometry x="770.9900000000002" y="619.74" width="60" height="60" as="geometry" />
        </mxCell>
        <mxCell id="MmX11wm5HvuTR1FrTXqp-316" value="1:N" style="text;html=1;strokeColor=none;fillColor=none;align=center;verticalAlign=middle;whiteSpace=wrap;rounded=0;fontSize=15;fontStyle=1;rotation=90;" parent="1" vertex="1">
          <mxGeometry x="830.9900000000002" y="639.24" width="22.5" height="15.75" as="geometry" />
        </mxCell>
        <mxCell id="MmX11wm5HvuTR1FrTXqp-317" value="" style="endArrow=none;html=1;rounded=0;fontColor=#000000;strokeColor=#000000;exitX=1;exitY=1;exitDx=0;exitDy=0;entryX=0;entryY=1;entryDx=0;entryDy=0;" parent="1" edge="1">
          <mxGeometry width="50" height="50" relative="1" as="geometry">
            <mxPoint x="815.9900000000002" y="634.74" as="sourcePoint" />
            <mxPoint x="785.9900000000002" y="634.74" as="targetPoint" />
          </mxGeometry>
        </mxCell>
        <mxCell id="MmX11wm5HvuTR1FrTXqp-318" value="ID" style="text;html=1;strokeColor=none;fillColor=none;align=center;verticalAlign=middle;whiteSpace=wrap;rounded=0;fontSize=8;fontStyle=1;" parent="1" vertex="1">
          <mxGeometry x="795.3700000000003" y="623.24" width="11.25" height="12" as="geometry" />
        </mxCell>
        <mxCell id="MmX11wm5HvuTR1FrTXqp-326" value="(0,N)" style="text;html=1;strokeColor=none;fillColor=none;align=left;verticalAlign=middle;whiteSpace=wrap;rounded=0;fontSize=9;" parent="1" vertex="1">
          <mxGeometry x="577.5199999999999" y="212.06" width="25.5" height="12.5" as="geometry" />
        </mxCell>
        <mxCell id="MmX11wm5HvuTR1FrTXqp-328" value="es_coordinado" style="text;html=1;strokeColor=none;fillColor=none;align=left;verticalAlign=middle;whiteSpace=wrap;rounded=0;fontSize=9;" parent="1" vertex="1">
          <mxGeometry x="547.1600000000001" y="226.68" width="55" height="12.5" as="geometry" />
        </mxCell>
        <mxCell id="MmX11wm5HvuTR1FrTXqp-333" value="" style="endArrow=none;html=1;rounded=0;entryX=0.001;entryY=0.907;entryDx=0;entryDy=0;exitX=1;exitY=0.5;exitDx=0;exitDy=0;dashed=1;entryPerimeter=0;" parent="1" source="wt0K1hmHgsjhLcT-p73o-230" target="MmX11wm5HvuTR1FrTXqp-278" edge="1">
          <mxGeometry width="50" height="50" relative="1" as="geometry">
            <mxPoint x="804.5300000000002" y="831.0100000000002" as="sourcePoint" />
            <mxPoint x="804.7400000000002" y="841.75" as="targetPoint" />
          </mxGeometry>
        </mxCell>
        <mxCell id="MmX11wm5HvuTR1FrTXqp-334" value="" style="ellipse;whiteSpace=wrap;html=1;aspect=fixed;fillColor=#CCCCCC;strokeColor=#000000;fontColor=#000000;" parent="1" vertex="1">
          <mxGeometry x="676.9700000000003" y="775.25" width="11" height="11" as="geometry" />
        </mxCell>
        <mxCell id="MmX11wm5HvuTR1FrTXqp-336" value="idJunta" style="text;html=1;strokeColor=none;fillColor=none;align=left;verticalAlign=middle;whiteSpace=wrap;rounded=0;fontSize=9;" parent="1" vertex="1">
          <mxGeometry x="640.2900000000002" y="774.5000000000003" width="30.25" height="12.5" as="geometry" />
        </mxCell>
        <mxCell id="MmX11wm5HvuTR1FrTXqp-397" value="Usuario" style="whiteSpace=wrap;html=1;align=center;" parent="1" vertex="1">
          <mxGeometry x="107.45000000000005" y="1138.65" width="100" height="60" as="geometry" />
        </mxCell>
        <mxCell id="MmX11wm5HvuTR1FrTXqp-398" value="name" style="text;html=1;strokeColor=none;fillColor=none;align=left;verticalAlign=middle;whiteSpace=wrap;rounded=0;fontSize=9;fontColor=#000000;direction=east;" parent="1" vertex="1">
          <mxGeometry x="54.700000000000045" y="1152.5900000000001" width="42.25" height="12.5" as="geometry" />
        </mxCell>
        <mxCell id="MmX11wm5HvuTR1FrTXqp-399" value="email" style="text;html=1;strokeColor=none;fillColor=none;align=left;verticalAlign=middle;whiteSpace=wrap;rounded=0;fontSize=9;fontColor=#000000;" parent="1" vertex="1">
          <mxGeometry x="55.7" y="1165.09" width="24.3" height="15.5" as="geometry" />
        </mxCell>
        <mxCell id="MmX11wm5HvuTR1FrTXqp-400" value="" style="endArrow=none;html=1;rounded=0;fontSize=10;exitX=0.002;exitY=0.348;exitDx=0;exitDy=0;strokeColor=#000000;fontColor=#000000;entryX=1;entryY=0.5;entryDx=0;entryDy=0;exitPerimeter=0;" parent="1" source="MmX11wm5HvuTR1FrTXqp-397" target="MmX11wm5HvuTR1FrTXqp-409" edge="1">
          <mxGeometry width="50" height="50" relative="1" as="geometry">
            <mxPoint x="157.45000000000005" y="1269.65" as="sourcePoint" />
            <mxPoint x="132.76" y="1218.71" as="targetPoint" />
          </mxGeometry>
        </mxCell>
        <mxCell id="MmX11wm5HvuTR1FrTXqp-406" value="id" style="text;html=1;strokeColor=none;fillColor=none;align=left;verticalAlign=middle;whiteSpace=wrap;rounded=0;fontSize=9;fontColor=#000000;direction=east;" parent="1" vertex="1">
          <mxGeometry x="69.16000000000008" y="1139.9599999999998" width="45.25" height="12.5" as="geometry" />
        </mxCell>
        <mxCell id="MmX11wm5HvuTR1FrTXqp-407" value="" style="endArrow=none;html=1;rounded=0;fontColor=#000000;strokeColor=#000000;entryX=1;entryY=0.5;entryDx=0;entryDy=0;exitX=0.001;exitY=0.121;exitDx=0;exitDy=0;exitPerimeter=0;" parent="1" source="MmX11wm5HvuTR1FrTXqp-397" target="MmX11wm5HvuTR1FrTXqp-410" edge="1">
          <mxGeometry width="50" height="50" relative="1" as="geometry">
            <mxPoint x="132.45000000000005" y="1269.65" as="sourcePoint" />
            <mxPoint x="180.950000000003" y="1106.15" as="targetPoint" />
          </mxGeometry>
        </mxCell>
        <mxCell id="MmX11wm5HvuTR1FrTXqp-408" value="&lt;font style=&quot;font-size: 4px;&quot;&gt;&lt;b&gt;UQ&lt;/b&gt;&lt;/font&gt;" style="ellipse;whiteSpace=wrap;html=1;aspect=fixed;fillColor=#FFFFFF;strokeColor=#000000;fontColor=#000000;direction=east;gradientColor=none;" parent="1" vertex="1">
          <mxGeometry x="82.13" y="1167.59" width="11" height="11" as="geometry" />
        </mxCell>
        <mxCell id="MmX11wm5HvuTR1FrTXqp-409" value="" style="ellipse;whiteSpace=wrap;html=1;aspect=fixed;fillColor=#FFFFFF;strokeColor=#000000;fontColor=#000000;direction=east;" parent="1" vertex="1">
          <mxGeometry x="82.13" y="1153.84" width="11" height="11" as="geometry" />
        </mxCell>
        <mxCell id="MmX11wm5HvuTR1FrTXqp-410" value="" style="ellipse;whiteSpace=wrap;html=1;aspect=fixed;fillColor=#000000;strokeColor=#000000;fontColor=#000000;direction=east;" parent="1" vertex="1">
          <mxGeometry x="82.13" y="1140.46" width="11" height="11" as="geometry" />
        </mxCell>
        <mxCell id="MmX11wm5HvuTR1FrTXqp-412" value="" style="endArrow=none;html=1;rounded=0;fontSize=10;entryX=1;entryY=0.5;entryDx=0;entryDy=0;strokeColor=#000000;fontColor=#000000;exitX=0.004;exitY=0.582;exitDx=0;exitDy=0;exitPerimeter=0;" parent="1" source="MmX11wm5HvuTR1FrTXqp-397" target="MmX11wm5HvuTR1FrTXqp-408" edge="1">
          <mxGeometry width="50" height="50" relative="1" as="geometry">
            <mxPoint x="102.93000000000006" y="1176.99" as="sourcePoint" />
            <mxPoint x="167.45000000000005" y="1245.9" as="targetPoint" />
          </mxGeometry>
        </mxCell>
        <mxCell id="MmX11wm5HvuTR1FrTXqp-694" value="fechaTomaPosesión" style="text;html=1;strokeColor=none;fillColor=none;align=left;verticalAlign=middle;whiteSpace=wrap;rounded=0;fontSize=9;" parent="1" vertex="1">
          <mxGeometry x="623.6699999999998" y="963.73" width="65" height="12.5" as="geometry" />
        </mxCell>
        <mxCell id="MmX11wm5HvuTR1FrTXqp-695" value="" style="ellipse;whiteSpace=wrap;html=1;aspect=fixed;fillColor=#FFFFFF;strokeColor=#000000;fontColor=#000000;" parent="1" vertex="1">
          <mxGeometry x="612.6700000000001" y="963.9900000000002" width="11" height="11" as="geometry" />
        </mxCell>
        <mxCell id="MmX11wm5HvuTR1FrTXqp-696" value="" style="ellipse;whiteSpace=wrap;html=1;aspect=fixed;fillColor=#FFFFFF;strokeColor=#000000;fontColor=#000000;" parent="1" vertex="1">
          <mxGeometry x="612.6700000000001" y="978.4900000000002" width="11" height="11" as="geometry" />
        </mxCell>
        <mxCell id="MmX11wm5HvuTR1FrTXqp-697" value="fechaCese" style="text;html=1;strokeColor=none;fillColor=none;align=left;verticalAlign=middle;whiteSpace=wrap;rounded=0;fontSize=9;" parent="1" vertex="1">
          <mxGeometry x="624.3799999999999" y="976.99" width="45.06" height="12.5" as="geometry" />
        </mxCell>
        <mxCell id="yooLV80YAIJDi9W8emZc-2" value="Miembro&lt;br&gt;Comisión" style="shape=ext;margin=3;double=1;whiteSpace=wrap;html=1;align=center;" parent="1" vertex="1">
          <mxGeometry x="459.33000000000004" y="962.47" width="120" height="65" as="geometry" />
        </mxCell>
        <mxCell id="yooLV80YAIJDi9W8emZc-31" style="edgeStyle=orthogonalEdgeStyle;rounded=0;orthogonalLoop=1;jettySize=auto;html=1;exitX=0.5;exitY=1;exitDx=0;exitDy=0;entryX=0.5;entryY=0;entryDx=0;entryDy=0;" parent="1" source="yooLV80YAIJDi9W8emZc-15" target="yooLV80YAIJDi9W8emZc-2" edge="1">
          <mxGeometry relative="1" as="geometry" />
        </mxCell>
        <mxCell id="yooLV80YAIJDi9W8emZc-15" value="Com-MiCom" style="shape=rhombus;perimeter=rhombusPerimeter;whiteSpace=wrap;html=1;align=center;fontStyle=1;fontSize=10;" parent="1" vertex="1">
          <mxGeometry x="488.88" y="620.74" width="60" height="60" as="geometry" />
        </mxCell>
        <mxCell id="G0A-RFpU1yBWGsKyXfba-67" style="edgeStyle=orthogonalEdgeStyle;rounded=0;orthogonalLoop=1;jettySize=auto;html=1;exitX=0.5;exitY=0;exitDx=0;exitDy=0;entryX=0.5;entryY=1;entryDx=0;entryDy=0;" parent="1" source="yooLV80YAIJDi9W8emZc-17" target="MmX11wm5HvuTR1FrTXqp-235" edge="1">
          <mxGeometry relative="1" as="geometry" />
        </mxCell>
        <mxCell id="yooLV80YAIJDi9W8emZc-17" value="ID" style="text;html=1;strokeColor=none;fillColor=none;align=center;verticalAlign=middle;whiteSpace=wrap;rounded=0;fontSize=8;fontStyle=1;" parent="1" vertex="1">
          <mxGeometry x="512.67" y="620.74" width="12.43" height="20" as="geometry" />
        </mxCell>
        <mxCell id="yooLV80YAIJDi9W8emZc-18" value="" style="endArrow=none;html=1;rounded=0;exitX=1;exitY=0;exitDx=0;exitDy=0;entryX=0;entryY=0;entryDx=0;entryDy=0;" parent="1" source="yooLV80YAIJDi9W8emZc-15" target="yooLV80YAIJDi9W8emZc-15" edge="1">
          <mxGeometry width="50" height="50" relative="1" as="geometry">
            <mxPoint x="398.88" y="641.1100000000001" as="sourcePoint" />
            <mxPoint x="448.88" y="591.1099999999999" as="targetPoint" />
          </mxGeometry>
        </mxCell>
        <mxCell id="yooLV80YAIJDi9W8emZc-61" value="idComisión" style="text;html=1;strokeColor=none;fillColor=none;align=left;verticalAlign=middle;whiteSpace=wrap;rounded=0;fontSize=9;" parent="1" vertex="1">
          <mxGeometry x="571" y="942.51" width="28.52" height="10" as="geometry" />
        </mxCell>
        <mxCell id="yooLV80YAIJDi9W8emZc-62" value="idUsuario" style="text;html=1;strokeColor=none;fillColor=none;align=left;verticalAlign=middle;whiteSpace=wrap;rounded=0;fontSize=9;" parent="1" vertex="1">
          <mxGeometry x="556.27" y="929.2800000000002" width="35.52" height="9.38" as="geometry" />
        </mxCell>
        <mxCell id="Ey-6C_wnQBlg7w_FSqS6-24" style="edgeStyle=orthogonalEdgeStyle;rounded=0;orthogonalLoop=1;jettySize=auto;html=1;exitX=0.5;exitY=1;exitDx=0;exitDy=0;entryX=0.805;entryY=-0.005;entryDx=0;entryDy=0;entryPerimeter=0;strokeColor=default;endArrow=none;endFill=0;" parent="1" source="yooLV80YAIJDi9W8emZc-64" edge="1">
          <mxGeometry relative="1" as="geometry">
            <mxPoint x="538.4999999999704" y="933.9700000000003" as="sourcePoint" />
            <mxPoint x="549.9300000000001" y="962.145" as="targetPoint" />
          </mxGeometry>
        </mxCell>
        <mxCell id="yooLV80YAIJDi9W8emZc-64" value="" style="ellipse;whiteSpace=wrap;html=1;aspect=fixed;fillColor=#B3B3B3;strokeColor=#000000;fontColor=#000000;gradientColor=default;gradientDirection=west;" parent="1" vertex="1">
          <mxGeometry x="544.4999999999998" y="928.4700000000003" width="11" height="11" as="geometry" />
        </mxCell>
        <mxCell id="yooLV80YAIJDi9W8emZc-66" value="" style="ellipse;whiteSpace=wrap;html=1;aspect=fixed;fillColor=#B3B3B3;strokeColor=#000000;fontColor=#000000;gradientColor=default;gradientDirection=west;" parent="1" vertex="1">
          <mxGeometry x="557.2700000000001" y="942.51" width="11" height="11" as="geometry" />
        </mxCell>
        <mxCell id="wt0K1hmHgsjhLcT-p73o-23" style="edgeStyle=orthogonalEdgeStyle;rounded=0;orthogonalLoop=1;jettySize=auto;html=1;exitX=0;exitY=0.5;exitDx=0;exitDy=0;entryX=1.024;entryY=0.414;entryDx=0;entryDy=0;entryPerimeter=0;" parent="1" source="_VbOPjBLyvqnEfAaVFIH-2" edge="1" target="nRg5Bw-d5btuzyKWFaWI-10">
          <mxGeometry relative="1" as="geometry">
            <mxPoint x="108.90999999999963" y="240.72000000000008" as="targetPoint" />
          </mxGeometry>
        </mxCell>
        <mxCell id="_VbOPjBLyvqnEfAaVFIH-2" value="&amp;nbsp; &amp;nbsp; &amp;nbsp; Ct - Ju" style="shape=rhombus;perimeter=rhombusPerimeter;whiteSpace=wrap;html=1;align=left;fontStyle=1;fontSize=10;" parent="1" vertex="1">
          <mxGeometry x="491.27" y="195.5" width="60" height="60" as="geometry" />
        </mxCell>
        <mxCell id="_VbOPjBLyvqnEfAaVFIH-4" value="1:N" style="text;html=1;strokeColor=none;fillColor=none;align=center;verticalAlign=middle;whiteSpace=wrap;rounded=0;fontSize=15;fontStyle=1;" parent="1" vertex="1">
          <mxGeometry x="510.05999999999995" y="173.62" width="22.43" height="20" as="geometry" />
        </mxCell>
        <mxCell id="_VbOPjBLyvqnEfAaVFIH-5" value="(1,1)" style="text;html=1;strokeColor=none;fillColor=none;align=left;verticalAlign=middle;whiteSpace=wrap;rounded=0;fontSize=9;" parent="1" vertex="1">
          <mxGeometry x="359.0000000000001" y="212.06" width="22.5" height="12.5" as="geometry" />
        </mxCell>
        <mxCell id="_VbOPjBLyvqnEfAaVFIH-6" value="coordina" style="text;html=1;strokeColor=none;fillColor=none;align=left;verticalAlign=middle;whiteSpace=wrap;rounded=0;fontSize=9;" parent="1" vertex="1">
          <mxGeometry x="359.0000000000001" y="226.56" width="50" height="12.5" as="geometry" />
        </mxCell>
        <mxCell id="_VbOPjBLyvqnEfAaVFIH-7" value="nombre" style="text;html=1;strokeColor=none;fillColor=none;align=left;verticalAlign=middle;whiteSpace=wrap;rounded=0;fontSize=9;" parent="1" vertex="1">
          <mxGeometry x="264.72000000000014" y="134" width="37.5" height="12.5" as="geometry" />
        </mxCell>
        <mxCell id="_VbOPjBLyvqnEfAaVFIH-8" value="dirección" style="text;html=1;strokeColor=none;fillColor=none;align=left;verticalAlign=middle;whiteSpace=wrap;rounded=0;fontSize=9;" parent="1" vertex="1">
          <mxGeometry x="278.1100000000001" y="148" width="63.5" height="12.5" as="geometry" />
        </mxCell>
        <mxCell id="_VbOPjBLyvqnEfAaVFIH-9" value="idTipo" style="text;html=1;strokeColor=none;fillColor=none;align=left;verticalAlign=middle;whiteSpace=wrap;rounded=0;fontSize=9;" parent="1" vertex="1">
          <mxGeometry x="290.1100000000001" y="161.56" width="53.5" height="12.5" as="geometry" />
        </mxCell>
        <mxCell id="_VbOPjBLyvqnEfAaVFIH-10" value="" style="endArrow=none;html=1;rounded=0;fontSize=11;entryX=0.5;entryY=1;entryDx=0;entryDy=0;exitX=0;exitY=0;exitDx=0;exitDy=0;" parent="1" target="_VbOPjBLyvqnEfAaVFIH-20" edge="1">
          <mxGeometry width="50" height="50" relative="1" as="geometry">
            <mxPoint x="245.6099999999999" y="200.50000000000006" as="sourcePoint" />
            <mxPoint x="338.1100000000001" y="88" as="targetPoint" />
          </mxGeometry>
        </mxCell>
        <mxCell id="_VbOPjBLyvqnEfAaVFIH-11" value="" style="endArrow=none;html=1;rounded=0;fontSize=11;entryX=0;entryY=0.5;entryDx=0;entryDy=0;exitX=0.25;exitY=0;exitDx=0;exitDy=0;startArrow=none;" parent="1" source="_VbOPjBLyvqnEfAaVFIH-23" edge="1">
          <mxGeometry width="50" height="50" relative="1" as="geometry">
            <mxPoint x="255.61000000000013" y="223.5" as="sourcePoint" />
            <mxPoint x="268.1100000000001" y="157" as="targetPoint" />
          </mxGeometry>
        </mxCell>
        <mxCell id="_VbOPjBLyvqnEfAaVFIH-12" value="" style="endArrow=none;html=1;rounded=0;fontSize=11;entryX=0.5;entryY=1;entryDx=0;entryDy=0;exitX=0.38;exitY=0;exitDx=0;exitDy=0;exitPerimeter=0;" parent="1" target="_VbOPjBLyvqnEfAaVFIH-21" edge="1">
          <mxGeometry width="50" height="50" relative="1" as="geometry">
            <mxPoint x="283.6099999999999" y="200.50000000000006" as="sourcePoint" />
            <mxPoint x="338.1100000000001" y="126.75" as="targetPoint" />
          </mxGeometry>
        </mxCell>
        <mxCell id="wt0K1hmHgsjhLcT-p73o-24" style="edgeStyle=orthogonalEdgeStyle;rounded=0;orthogonalLoop=1;jettySize=auto;html=1;exitX=0.97;exitY=0.489;exitDx=0;exitDy=0;entryX=-0.002;entryY=0.417;entryDx=0;entryDy=0;exitPerimeter=0;entryPerimeter=0;" parent="1" source="_VbOPjBLyvqnEfAaVFIH-2" target="MmX11wm5HvuTR1FrTXqp-2" edge="1">
          <mxGeometry relative="1" as="geometry" />
        </mxCell>
        <mxCell id="_VbOPjBLyvqnEfAaVFIH-15" value="ID" style="text;html=1;strokeColor=none;fillColor=none;align=center;verticalAlign=middle;whiteSpace=wrap;rounded=0;fontSize=8;fontStyle=1;" parent="1" vertex="1">
          <mxGeometry x="494.80999999999995" y="215.62" width="12.43" height="20" as="geometry" />
        </mxCell>
        <mxCell id="_VbOPjBLyvqnEfAaVFIH-16" value="" style="endArrow=none;html=1;rounded=0;exitX=0;exitY=0;exitDx=0;exitDy=0;entryX=0;entryY=1;entryDx=0;entryDy=0;" parent="1" edge="1">
          <mxGeometry width="50" height="50" relative="1" as="geometry">
            <mxPoint x="506.27" y="210.49999999999994" as="sourcePoint" />
            <mxPoint x="506.27" y="240.49999999999994" as="targetPoint" />
          </mxGeometry>
        </mxCell>
        <mxCell id="_VbOPjBLyvqnEfAaVFIH-17" value="id" style="text;html=1;strokeColor=none;fillColor=none;align=left;verticalAlign=middle;whiteSpace=wrap;rounded=0;fontSize=9;" parent="1" vertex="1">
          <mxGeometry x="255.11000000000013" y="121" width="70.5" height="12.5" as="geometry" />
        </mxCell>
        <mxCell id="_VbOPjBLyvqnEfAaVFIH-18" value="" style="endArrow=none;html=1;rounded=0;fontSize=10;fontColor=#000000;strokeColor=#000000;exitX=0.12;exitY=0;exitDx=0;exitDy=0;entryX=0.5;entryY=1;entryDx=0;entryDy=0;exitPerimeter=0;" parent="1" target="_VbOPjBLyvqnEfAaVFIH-19" edge="1">
          <mxGeometry width="50" height="50" relative="1" as="geometry">
            <mxPoint x="257.6099999999999" y="200.50000000000006" as="sourcePoint" />
            <mxPoint x="338.1100000000001" y="101" as="targetPoint" />
          </mxGeometry>
        </mxCell>
        <mxCell id="_VbOPjBLyvqnEfAaVFIH-19" value="" style="ellipse;whiteSpace=wrap;html=1;aspect=fixed;fillColor=#FFFFFF;strokeColor=#000000;fontColor=#000000;" parent="1" vertex="1">
          <mxGeometry x="252.11000000000013" y="135.5" width="11" height="11" as="geometry" />
        </mxCell>
        <mxCell id="_VbOPjBLyvqnEfAaVFIH-20" value="" style="ellipse;whiteSpace=wrap;html=1;aspect=fixed;fillColor=#000000;strokeColor=#000000;fontColor=#000000;" parent="1" vertex="1">
          <mxGeometry x="240.11000000000013" y="122.5" width="11" height="11" as="geometry" />
        </mxCell>
        <mxCell id="_VbOPjBLyvqnEfAaVFIH-21" value="" style="ellipse;whiteSpace=wrap;html=1;aspect=fixed;fillColor=#CCCCCC;strokeColor=#000000;fontColor=#000000;" parent="1" vertex="1">
          <mxGeometry x="278.1100000000001" y="162.5" width="11" height="11" as="geometry" />
        </mxCell>
        <mxCell id="_VbOPjBLyvqnEfAaVFIH-23" value="" style="ellipse;whiteSpace=wrap;html=1;aspect=fixed;fillColor=#FFFFFF;strokeColor=#000000;fontColor=#000000;" parent="1" vertex="1">
          <mxGeometry x="265.1100000000001" y="149.5" width="11" height="11" as="geometry" />
        </mxCell>
        <mxCell id="_VbOPjBLyvqnEfAaVFIH-24" value="" style="endArrow=none;html=1;rounded=0;fontSize=11;entryX=0.5;entryY=1;entryDx=0;entryDy=0;exitX=0.25;exitY=0;exitDx=0;exitDy=0;" parent="1" target="_VbOPjBLyvqnEfAaVFIH-23" edge="1">
          <mxGeometry width="50" height="50" relative="1" as="geometry">
            <mxPoint x="270.6099999999999" y="200.50000000000006" as="sourcePoint" />
            <mxPoint x="338.1100000000001" y="114" as="targetPoint" />
          </mxGeometry>
        </mxCell>
        <mxCell id="_VbOPjBLyvqnEfAaVFIH-31" value="1:N" style="text;html=1;strokeColor=none;fillColor=none;align=center;verticalAlign=middle;whiteSpace=wrap;rounded=0;fontSize=15;fontStyle=1;direction=east;flipV=0;flipH=0;rotation=90;" parent="1" vertex="1">
          <mxGeometry x="548.8800000000001" y="640.98" width="22.5" height="15.75" as="geometry" />
        </mxCell>
        <mxCell id="wt0K1hmHgsjhLcT-p73o-5" value="fechaConstitución" style="text;html=1;strokeColor=none;fillColor=none;align=left;verticalAlign=middle;whiteSpace=wrap;rounded=0;fontSize=9;" parent="1" vertex="1">
          <mxGeometry x="646.73" y="139.93999999999988" width="65" height="12.5" as="geometry" />
        </mxCell>
        <mxCell id="wt0K1hmHgsjhLcT-p73o-6" value="" style="ellipse;whiteSpace=wrap;html=1;aspect=fixed;fillColor=#FFFFFF;strokeColor=#000000;fontColor=#000000;" parent="1" vertex="1">
          <mxGeometry x="634.8" y="139.9400000000001" width="11" height="11" as="geometry" />
        </mxCell>
        <mxCell id="wt0K1hmHgsjhLcT-p73o-7" value="" style="ellipse;whiteSpace=wrap;html=1;aspect=fixed;fillColor=#FFFFFF;strokeColor=#000000;fontColor=#000000;" parent="1" vertex="1">
          <mxGeometry x="645.8" y="154.01000000000005" width="12.05" height="12.05" as="geometry" />
        </mxCell>
        <mxCell id="wt0K1hmHgsjhLcT-p73o-8" value="fechaDisolución" style="text;html=1;strokeColor=none;fillColor=none;align=left;verticalAlign=middle;whiteSpace=wrap;rounded=0;fontSize=9;" parent="1" vertex="1">
          <mxGeometry x="660.55" y="154.01" width="45.06" height="12.5" as="geometry" />
        </mxCell>
        <mxCell id="wt0K1hmHgsjhLcT-p73o-9" value="" style="endArrow=none;html=1;rounded=0;entryX=0.5;entryY=1;entryDx=0;entryDy=0;exitX=0.25;exitY=0;exitDx=0;exitDy=0;" parent="1" source="MmX11wm5HvuTR1FrTXqp-2" target="wt0K1hmHgsjhLcT-p73o-6" edge="1">
          <mxGeometry width="50" height="50" relative="1" as="geometry">
            <mxPoint x="640.7300000000002" y="164.6799999999999" as="sourcePoint" />
            <mxPoint x="651.19" y="130.74" as="targetPoint" />
          </mxGeometry>
        </mxCell>
        <mxCell id="wt0K1hmHgsjhLcT-p73o-10" value="" style="endArrow=none;html=1;rounded=0;entryX=0.5;entryY=1;entryDx=0;entryDy=0;exitX=0.367;exitY=-0.004;exitDx=0;exitDy=0;exitPerimeter=0;dashed=1;" parent="1" source="MmX11wm5HvuTR1FrTXqp-2" target="wt0K1hmHgsjhLcT-p73o-7" edge="1">
          <mxGeometry width="50" height="50" relative="1" as="geometry">
            <mxPoint x="652.97" y="194.06" as="sourcePoint" />
            <mxPoint x="709.6099999999997" y="139.6999999999997" as="targetPoint" />
          </mxGeometry>
        </mxCell>
        <mxCell id="wt0K1hmHgsjhLcT-p73o-37" value="idCentro" style="text;html=1;strokeColor=none;fillColor=none;align=left;verticalAlign=middle;whiteSpace=wrap;rounded=0;fontSize=9;" parent="1" vertex="1">
          <mxGeometry x="673.4799999999999" y="165.5" width="75" height="12.5" as="geometry" />
        </mxCell>
        <mxCell id="wt0K1hmHgsjhLcT-p73o-38" value="" style="endArrow=none;html=1;rounded=0;fontSize=10;entryX=0.5;entryY=0;entryDx=0;entryDy=0;exitX=0.5;exitY=1;exitDx=0;exitDy=0;" parent="1" source="wt0K1hmHgsjhLcT-p73o-39" edge="1">
          <mxGeometry width="50" height="50" relative="1" as="geometry">
            <mxPoint x="705.98" y="100.56" as="sourcePoint" />
            <mxPoint x="665.97" y="201.06" as="targetPoint" />
          </mxGeometry>
        </mxCell>
        <mxCell id="wt0K1hmHgsjhLcT-p73o-39" value="" style="ellipse;whiteSpace=wrap;html=1;aspect=fixed;fillColor=#CCCCCC;strokeColor=#000000;fontColor=#000000;" parent="1" vertex="1">
          <mxGeometry x="660.4800000000002" y="166.81" width="11" height="11" as="geometry" />
        </mxCell>
        <mxCell id="wt0K1hmHgsjhLcT-p73o-87" value="Representación" style="whiteSpace=wrap;html=1;align=center;points=[[0,0,0,0,0],[0,0.25,0,0,0],[0,0.5,0,0,0],[0,0.75,0,0,0],[0,1,0,0,0],[0.12,0,0,0,0],[0.25,0,0,0,0],[0.25,1,0,0,0],[0.38,0,0,0,0],[0.5,0,0,0,0],[0.5,1,0,0,0],[0.63,0,0,0,0],[0.75,0,0,0,0],[0.75,1,0,0,0],[0.88,0,0,0,0],[1,0,0,0,0],[1,0.25,0,0,0],[1,0.5,0,0,0],[1,0.75,0,0,0],[1,1,0,0,0]];" parent="1" vertex="1">
          <mxGeometry x="348.1" y="777.0900000000003" width="100" height="60" as="geometry" />
        </mxCell>
        <mxCell id="wt0K1hmHgsjhLcT-p73o-230" value="" style="ellipse;whiteSpace=wrap;html=1;aspect=fixed;fillColor=#FFFFFF;strokeColor=#000000;fontColor=#000000;" parent="1" vertex="1">
          <mxGeometry x="676.9700000000003" y="820.48" width="11" height="11" as="geometry" />
        </mxCell>
        <mxCell id="wt0K1hmHgsjhLcT-p73o-231" value="acta" style="text;html=1;strokeColor=none;fillColor=none;align=left;verticalAlign=middle;whiteSpace=wrap;rounded=0;fontSize=9;" parent="1" vertex="1">
          <mxGeometry x="653.15" y="819.7300000000004" width="33.33" height="12.5" as="geometry" />
        </mxCell>
        <mxCell id="XBJ8q-S12vVFv1pdDJ5v-1" value="Tipo Centro" style="whiteSpace=wrap;html=1;align=center;points=[[0,0,0,0,0],[0,0.25,0,0,0],[0,0.5,0,0,0],[0,0.75,0,0,0],[0,1,0,0,0],[0.12,0,0,0,0],[0.25,0,0,0,0],[0.25,1,0,0,0],[0.38,0,0,0,0],[0.5,0,0,0,0],[0.5,1,0,0,0],[0.63,0,0,0,0],[0.75,0,0,0,0],[0.75,1,0,0,0],[0.88,0,0,0,0],[1,0,0,0,0],[1,0.25,0,0,0],[1,0.5,0,0,0],[1,0.75,0,0,0],[1,1,0,0,0]];" parent="1" vertex="1">
          <mxGeometry x="100.8900000000001" y="470.31" width="100" height="60" as="geometry" />
        </mxCell>
        <mxCell id="XBJ8q-S12vVFv1pdDJ5v-2" value="nombre" style="text;html=1;strokeColor=none;fillColor=none;align=left;verticalAlign=middle;whiteSpace=wrap;rounded=0;fontSize=9;" parent="1" vertex="1">
          <mxGeometry x="26.269999999999982" y="485.82" width="37.5" height="12.5" as="geometry" />
        </mxCell>
        <mxCell id="XBJ8q-S12vVFv1pdDJ5v-3" value="" style="endArrow=none;html=1;rounded=0;fontSize=11;entryX=1;entryY=0.5;entryDx=0;entryDy=0;exitX=-0.002;exitY=0.086;exitDx=0;exitDy=0;exitPerimeter=0;" parent="1" target="XBJ8q-S12vVFv1pdDJ5v-7" edge="1">
          <mxGeometry width="50" height="50" relative="1" as="geometry">
            <mxPoint x="100.69000000000005" y="475.46999999999963" as="sourcePoint" />
            <mxPoint x="198.8900000000001" y="358.25000000000006" as="targetPoint" />
          </mxGeometry>
        </mxCell>
        <mxCell id="XBJ8q-S12vVFv1pdDJ5v-4" value="id" style="text;html=1;strokeColor=none;fillColor=none;align=left;verticalAlign=middle;whiteSpace=wrap;rounded=0;fontSize=9;" parent="1" vertex="1">
          <mxGeometry x="51.03999999999985" y="470.3100000000001" width="70.5" height="12.5" as="geometry" />
        </mxCell>
        <mxCell id="XBJ8q-S12vVFv1pdDJ5v-5" value="" style="endArrow=none;html=1;rounded=0;fontSize=10;fontColor=#000000;strokeColor=#000000;exitX=-0.001;exitY=0.368;exitDx=0;exitDy=0;entryX=1;entryY=0.5;entryDx=0;entryDy=0;exitPerimeter=0;" parent="1" edge="1">
          <mxGeometry width="50" height="50" relative="1" as="geometry">
            <mxPoint x="100.78999999999996" y="492.3899999999997" as="sourcePoint" />
            <mxPoint x="74.78999999999996" y="492.07" as="targetPoint" />
          </mxGeometry>
        </mxCell>
        <mxCell id="XBJ8q-S12vVFv1pdDJ5v-6" value="" style="ellipse;whiteSpace=wrap;html=1;aspect=fixed;fillColor=#FFFFFF;strokeColor=#000000;fontColor=#000000;" parent="1" vertex="1">
          <mxGeometry x="63.789999999999964" y="486.57" width="11" height="11" as="geometry" />
        </mxCell>
        <mxCell id="XBJ8q-S12vVFv1pdDJ5v-7" value="" style="ellipse;whiteSpace=wrap;html=1;aspect=fixed;fillColor=#000000;strokeColor=#000000;fontColor=#000000;" parent="1" vertex="1">
          <mxGeometry x="63.770000000000095" y="470.31" width="11" height="11" as="geometry" />
        </mxCell>
        <mxCell id="nRg5Bw-d5btuzyKWFaWI-1" value="(1,1)" style="text;html=1;strokeColor=none;fillColor=none;align=left;verticalAlign=middle;whiteSpace=wrap;rounded=0;fontSize=9;" parent="1" vertex="1">
          <mxGeometry x="155.38" y="454.73999999999995" width="22.5" height="12.5" as="geometry" />
        </mxCell>
        <mxCell id="nRg5Bw-d5btuzyKWFaWI-10" value="Centro" style="shape=ext;margin=3;double=1;whiteSpace=wrap;html=1;align=center;" parent="1" vertex="1">
          <mxGeometry x="245.27999999999997" y="200.5" width="100" height="60" as="geometry" />
        </mxCell>
        <mxCell id="G0A-RFpU1yBWGsKyXfba-44" style="edgeStyle=orthogonalEdgeStyle;rounded=0;orthogonalLoop=1;jettySize=auto;html=1;exitX=0.5;exitY=1;exitDx=0;exitDy=0;" parent="1" source="Ey-6C_wnQBlg7w_FSqS6-1" target="G0A-RFpU1yBWGsKyXfba-1" edge="1">
          <mxGeometry relative="1" as="geometry" />
        </mxCell>
        <mxCell id="5XtZwni91hWJkgiUzxf1-13" style="edgeStyle=orthogonalEdgeStyle;rounded=0;orthogonalLoop=1;jettySize=auto;html=1;exitX=0.5;exitY=0;exitDx=0;exitDy=0;entryX=0.058;entryY=1.023;entryDx=0;entryDy=0;entryPerimeter=0;" parent="1" source="Ey-6C_wnQBlg7w_FSqS6-1" target="MmX11wm5HvuTR1FrTXqp-2" edge="1">
          <mxGeometry relative="1" as="geometry" />
        </mxCell>
        <mxCell id="Ey-6C_wnQBlg7w_FSqS6-1" value="Ju-MiJu" style="shape=rhombus;perimeter=rhombusPerimeter;whiteSpace=wrap;html=1;align=center;fontStyle=1;fontSize=10;" parent="1" vertex="1">
          <mxGeometry x="228.3599999999999" y="329.80999999999983" width="60" height="60" as="geometry" />
        </mxCell>
        <mxCell id="Ey-6C_wnQBlg7w_FSqS6-2" value="ID" style="text;html=1;strokeColor=none;fillColor=none;align=center;verticalAlign=middle;whiteSpace=wrap;rounded=0;fontSize=8;fontStyle=1;" parent="1" vertex="1">
          <mxGeometry x="252.14" y="332" width="12.43" height="13.81" as="geometry" />
        </mxCell>
        <mxCell id="Ey-6C_wnQBlg7w_FSqS6-3" value="" style="endArrow=none;html=1;rounded=0;exitX=1;exitY=0;exitDx=0;exitDy=0;entryX=0;entryY=0;entryDx=0;entryDy=0;" parent="1" edge="1">
          <mxGeometry width="50" height="50" relative="1" as="geometry">
            <mxPoint x="273.3599999999998" y="344.80999999999983" as="sourcePoint" />
            <mxPoint x="243.3599999999998" y="344.80999999999983" as="targetPoint" />
          </mxGeometry>
        </mxCell>
        <mxCell id="Ey-6C_wnQBlg7w_FSqS6-25" style="edgeStyle=orthogonalEdgeStyle;rounded=0;orthogonalLoop=1;jettySize=auto;html=1;entryX=0.86;entryY=-0.004;entryDx=0;entryDy=0;strokeColor=default;endArrow=none;endFill=0;entryPerimeter=0;exitX=0.5;exitY=1;exitDx=0;exitDy=0;" parent="1" source="yooLV80YAIJDi9W8emZc-66" target="yooLV80YAIJDi9W8emZc-2" edge="1">
          <mxGeometry relative="1" as="geometry">
            <mxPoint x="565" y="954" as="sourcePoint" />
            <mxPoint x="565.4499999999996" y="963.315" as="targetPoint" />
          </mxGeometry>
        </mxCell>
        <mxCell id="Ey-6C_wnQBlg7w_FSqS6-26" style="edgeStyle=orthogonalEdgeStyle;rounded=0;orthogonalLoop=1;jettySize=auto;html=1;exitX=0;exitY=0.5;exitDx=0;exitDy=0;entryX=0.997;entryY=0.145;entryDx=0;entryDy=0;entryPerimeter=0;strokeColor=default;endArrow=none;endFill=0;" parent="1" source="MmX11wm5HvuTR1FrTXqp-695" target="yooLV80YAIJDi9W8emZc-2" edge="1">
          <mxGeometry relative="1" as="geometry">
            <mxPoint x="632.0999999999999" y="985.55" as="sourcePoint" />
            <mxPoint x="598.0999999999999" y="985.55" as="targetPoint" />
          </mxGeometry>
        </mxCell>
        <mxCell id="Ey-6C_wnQBlg7w_FSqS6-27" style="edgeStyle=orthogonalEdgeStyle;rounded=0;orthogonalLoop=1;jettySize=auto;html=1;exitX=0;exitY=0.5;exitDx=0;exitDy=0;entryX=1.004;entryY=0.33;entryDx=0;entryDy=0;entryPerimeter=0;strokeColor=default;endArrow=none;endFill=0;dashed=1;" parent="1" source="MmX11wm5HvuTR1FrTXqp-696" target="yooLV80YAIJDi9W8emZc-2" edge="1">
          <mxGeometry relative="1" as="geometry">
            <mxPoint x="642.0999999999999" y="995.55" as="sourcePoint" />
            <mxPoint x="608.0999999999999" y="995.55" as="targetPoint" />
          </mxGeometry>
        </mxCell>
        <mxCell id="Ey-6C_wnQBlg7w_FSqS6-29" value="(0,N)" style="text;html=1;strokeColor=none;fillColor=none;align=left;verticalAlign=middle;whiteSpace=wrap;rounded=0;fontSize=9;" parent="1" vertex="1">
          <mxGeometry x="488.0899999999999" y="944.3" width="25.5" height="12.5" as="geometry" />
        </mxCell>
        <mxCell id="Ey-6C_wnQBlg7w_FSqS6-30" value="es_representada" style="text;html=1;strokeColor=none;fillColor=none;align=left;verticalAlign=middle;whiteSpace=wrap;rounded=0;fontSize=9;" parent="1" vertex="1">
          <mxGeometry x="446.0000000000002" y="931.8" width="50" height="12.5" as="geometry" />
        </mxCell>
        <mxCell id="Ey-6C_wnQBlg7w_FSqS6-47" value="" style="ellipse;whiteSpace=wrap;html=1;aspect=fixed;fillColor=#FFFFFF;strokeColor=#000000;fontColor=#000000;" parent="1" vertex="1">
          <mxGeometry x="420.4999999999999" y="546.9100000000001" width="11" height="11" as="geometry" />
        </mxCell>
        <mxCell id="Ey-6C_wnQBlg7w_FSqS6-48" value="fechaDisolución" style="text;html=1;strokeColor=none;fillColor=none;align=left;verticalAlign=middle;whiteSpace=wrap;rounded=0;fontSize=9;" parent="1" vertex="1">
          <mxGeometry x="353.29000000000013" y="545.6700000000001" width="65" height="12.5" as="geometry" />
        </mxCell>
        <mxCell id="Ey-6C_wnQBlg7w_FSqS6-49" value="" style="endArrow=none;html=1;rounded=0;exitX=-0.009;exitY=0.905;exitDx=0;exitDy=0;exitPerimeter=0;dashed=1;entryX=1;entryY=0.5;entryDx=0;entryDy=0;" parent="1" source="MmX11wm5HvuTR1FrTXqp-235" target="Ey-6C_wnQBlg7w_FSqS6-47" edge="1">
          <mxGeometry width="50" height="50" relative="1" as="geometry">
            <mxPoint x="578.42" y="567.7399999999999" as="sourcePoint" />
            <mxPoint x="434" y="559" as="targetPoint" />
            <Array as="points" />
          </mxGeometry>
        </mxCell>
        <mxCell id="Ey-6C_wnQBlg7w_FSqS6-53" value="Tipo&lt;br&gt;Convocatoria" style="whiteSpace=wrap;html=1;align=center;points=[[0,0,0,0,0],[0,0.25,0,0,0],[0,0.5,0,0,0],[0,0.75,0,0,0],[0,1,0,0,0],[0.12,0,0,0,0],[0.25,0,0,0,0],[0.25,1,0,0,0],[0.38,0,0,0,0],[0.5,0,0,0,0],[0.5,1,0,0,0],[0.63,0,0,0,0],[0.75,0,0,0,0],[0.75,1,0,0,0],[0.88,0,0,0,0],[1,0,0,0,0],[1,0.25,0,0,0],[1,0.5,0,0,0],[1,0.75,0,0,0],[1,1,0,0,0]];" parent="1" vertex="1">
          <mxGeometry x="866.0400000000002" y="1020.0200000000003" width="100" height="60" as="geometry" />
        </mxCell>
        <mxCell id="Ey-6C_wnQBlg7w_FSqS6-54" value="nombre" style="text;html=1;strokeColor=none;fillColor=none;align=left;verticalAlign=middle;whiteSpace=wrap;rounded=0;fontSize=9;" parent="1" vertex="1">
          <mxGeometry x="890.8700000000001" y="981.7500000000003" width="37.5" height="12.5" as="geometry" />
        </mxCell>
        <mxCell id="Ey-6C_wnQBlg7w_FSqS6-55" value="" style="endArrow=none;html=1;rounded=0;fontSize=11;entryX=0.5;entryY=1;entryDx=0;entryDy=0;exitX=0;exitY=0;exitDx=0;exitDy=0;" parent="1" target="Ey-6C_wnQBlg7w_FSqS6-59" edge="1">
          <mxGeometry width="50" height="50" relative="1" as="geometry">
            <mxPoint x="871.8999999999999" y="1020.0200000000003" as="sourcePoint" />
            <mxPoint x="964.0400000000002" y="907.9600000000004" as="targetPoint" />
          </mxGeometry>
        </mxCell>
        <mxCell id="Ey-6C_wnQBlg7w_FSqS6-56" value="id" style="text;html=1;strokeColor=none;fillColor=none;align=left;verticalAlign=middle;whiteSpace=wrap;rounded=0;fontSize=9;" parent="1" vertex="1">
          <mxGeometry x="881.78" y="967.9000000000004" width="70.5" height="12.5" as="geometry" />
        </mxCell>
        <mxCell id="Ey-6C_wnQBlg7w_FSqS6-57" value="" style="endArrow=none;html=1;rounded=0;fontSize=10;fontColor=#000000;strokeColor=#000000;exitX=0.12;exitY=0;exitDx=0;exitDy=0;entryX=0.5;entryY=1;entryDx=0;entryDy=0;exitPerimeter=0;" parent="1" target="Ey-6C_wnQBlg7w_FSqS6-58" edge="1">
          <mxGeometry width="50" height="50" relative="1" as="geometry">
            <mxPoint x="883.8999999999999" y="1020.0200000000003" as="sourcePoint" />
            <mxPoint x="964.0400000000002" y="920.9600000000004" as="targetPoint" />
          </mxGeometry>
        </mxCell>
        <mxCell id="Ey-6C_wnQBlg7w_FSqS6-58" value="" style="ellipse;whiteSpace=wrap;html=1;aspect=fixed;fillColor=#FFFFFF;strokeColor=#000000;fontColor=#000000;" parent="1" vertex="1">
          <mxGeometry x="878.7100000000003" y="983.2500000000003" width="11" height="11" as="geometry" />
        </mxCell>
        <mxCell id="Ey-6C_wnQBlg7w_FSqS6-59" value="" style="ellipse;whiteSpace=wrap;html=1;aspect=fixed;fillColor=#000000;strokeColor=#000000;fontColor=#000000;" parent="1" vertex="1">
          <mxGeometry x="866.0400000000002" y="968.1400000000002" width="11" height="11" as="geometry" />
        </mxCell>
        <mxCell id="Ey-6C_wnQBlg7w_FSqS6-67" value="(0,N)" style="text;html=1;strokeColor=none;fillColor=none;align=left;verticalAlign=middle;whiteSpace=wrap;rounded=0;fontSize=9;" parent="1" vertex="1">
          <mxGeometry x="796.4900000000002" y="860.52" width="22.5" height="12.5" as="geometry" />
        </mxCell>
        <mxCell id="Ey-6C_wnQBlg7w_FSqS6-68" value="corresponde_a" style="text;html=1;strokeColor=none;fillColor=none;align=left;verticalAlign=middle;whiteSpace=wrap;rounded=0;fontSize=9;" parent="1" vertex="1">
          <mxGeometry x="795.3700000000002" y="847.2700000000002" width="50" height="12.5" as="geometry" />
        </mxCell>
        <mxCell id="Ey-6C_wnQBlg7w_FSqS6-70" value="(1,1)" style="text;html=1;strokeColor=none;fillColor=none;align=left;verticalAlign=middle;whiteSpace=wrap;rounded=0;fontSize=9;" parent="1" vertex="1">
          <mxGeometry x="628.61" y="262.18" width="25.5" height="12.5" as="geometry" />
        </mxCell>
        <mxCell id="Ey-6C_wnQBlg7w_FSqS6-71" value="representa" style="text;html=1;strokeColor=none;fillColor=none;align=left;verticalAlign=middle;whiteSpace=wrap;rounded=0;fontSize=9;" parent="1" vertex="1">
          <mxGeometry x="630.11" y="275.68" width="55" height="12.5" as="geometry" />
        </mxCell>
        <mxCell id="Ey-6C_wnQBlg7w_FSqS6-73" value="convoca" style="text;html=1;strokeColor=none;fillColor=none;align=left;verticalAlign=middle;whiteSpace=wrap;rounded=0;fontSize=9;" parent="1" vertex="1">
          <mxGeometry x="761.9900000000002" y="738.9300000000003" width="55" height="12.5" as="geometry" />
        </mxCell>
        <mxCell id="Ey-6C_wnQBlg7w_FSqS6-74" value="(0,N)" style="text;html=1;strokeColor=none;fillColor=none;align=left;verticalAlign=middle;whiteSpace=wrap;rounded=0;fontSize=9;" parent="1" vertex="1">
          <mxGeometry x="776.0000000000005" y="750.8200000000004" width="25.5" height="12.5" as="geometry" />
        </mxCell>
        <mxCell id="Ey-6C_wnQBlg7w_FSqS6-81" value="(1,1)" style="text;html=1;strokeColor=none;fillColor=none;align=left;verticalAlign=middle;whiteSpace=wrap;rounded=0;fontSize=9;" parent="1" vertex="1">
          <mxGeometry x="840.9400000000007" y="1045.7500000000005" width="25.5" height="12.5" as="geometry" />
        </mxCell>
        <mxCell id="Ey-6C_wnQBlg7w_FSqS6-83" value="tiene" style="text;html=1;strokeColor=none;fillColor=none;align=left;verticalAlign=middle;whiteSpace=wrap;rounded=0;fontSize=9;" parent="1" vertex="1">
          <mxGeometry x="839.8700000000003" y="1028.0400000000004" width="50" height="12.5" as="geometry" />
        </mxCell>
        <mxCell id="Ey-6C_wnQBlg7w_FSqS6-99" value="tiene" style="text;html=1;strokeColor=none;fillColor=none;align=left;verticalAlign=middle;whiteSpace=wrap;rounded=0;fontSize=9;" parent="1" vertex="1">
          <mxGeometry x="155.38" y="442.24000000000007" width="50" height="12.5" as="geometry" />
        </mxCell>
        <mxCell id="Ey-6C_wnQBlg7w_FSqS6-100" value="(0,N)" style="text;html=1;strokeColor=none;fillColor=none;align=left;verticalAlign=middle;whiteSpace=wrap;rounded=0;fontSize=9;" parent="1" vertex="1">
          <mxGeometry x="212.25" y="218.48000000000002" width="22.5" height="6.7" as="geometry" />
        </mxCell>
        <mxCell id="Ey-6C_wnQBlg7w_FSqS6-101" value="corresponde_a" style="text;html=1;strokeColor=none;fillColor=none;align=left;verticalAlign=middle;whiteSpace=wrap;rounded=0;fontSize=9;" parent="1" vertex="1">
          <mxGeometry x="172.45000000000024" y="232" width="50" height="12.5" as="geometry" />
        </mxCell>
        <mxCell id="Ey-6C_wnQBlg7w_FSqS6-103" value="DIAGRAMA EER UCOMI" style="text;html=1;strokeColor=none;fillColor=none;align=center;verticalAlign=middle;whiteSpace=wrap;rounded=0;fontSize=60;fontStyle=1;" parent="1" vertex="1">
          <mxGeometry y="43" width="980" height="30" as="geometry" />
        </mxCell>
        <mxCell id="NSej-nHTsgWwxNNao5oT-1" value="" style="ellipse;whiteSpace=wrap;html=1;aspect=fixed;fillColor=#FFFFFF;strokeColor=#000000;fontColor=#000000;direction=east;" parent="1" vertex="1">
          <mxGeometry x="82.13" y="1180.6499999999999" width="11" height="11" as="geometry" />
        </mxCell>
        <mxCell id="NSej-nHTsgWwxNNao5oT-3" value="" style="endArrow=none;html=1;rounded=0;fontSize=10;entryX=1;entryY=0.5;entryDx=0;entryDy=0;strokeColor=#000000;fontColor=#000000;exitX=0.002;exitY=0.797;exitDx=0;exitDy=0;exitPerimeter=0;" parent="1" source="MmX11wm5HvuTR1FrTXqp-397" target="NSej-nHTsgWwxNNao5oT-1" edge="1">
          <mxGeometry width="50" height="50" relative="1" as="geometry">
            <mxPoint x="102.93000000000006" y="1186.99" as="sourcePoint" />
            <mxPoint x="153.76" y="1251.71" as="targetPoint" />
          </mxGeometry>
        </mxCell>
        <mxCell id="NSej-nHTsgWwxNNao5oT-4" value="password" style="text;html=1;strokeColor=none;fillColor=none;align=left;verticalAlign=middle;whiteSpace=wrap;rounded=0;fontSize=9;fontColor=#000000;direction=east;" parent="1" vertex="1">
          <mxGeometry x="38.700000000000045" y="1178.15" width="29.84" height="15.5" as="geometry" />
        </mxCell>
        <mxCell id="G0A-RFpU1yBWGsKyXfba-1" value="Miembro&lt;br&gt;Junta" style="shape=ext;margin=3;double=1;whiteSpace=wrap;html=1;align=center;" parent="1" vertex="1">
          <mxGeometry x="208.47000000000003" y="557.4799999999998" width="100" height="60" as="geometry" />
        </mxCell>
        <mxCell id="5XtZwni91hWJkgiUzxf1-25" style="edgeStyle=orthogonalEdgeStyle;rounded=0;orthogonalLoop=1;jettySize=auto;html=1;exitX=0.5;exitY=0;exitDx=0;exitDy=0;entryX=0;entryY=0.5;entryDx=0;entryDy=0;" parent="1" source="5XtZwni91hWJkgiUzxf1-27" target="G0A-RFpU1yBWGsKyXfba-1" edge="1">
          <mxGeometry relative="1" as="geometry">
            <mxPoint x="118.15999999999985" y="765.52" as="sourcePoint" />
          </mxGeometry>
        </mxCell>
        <mxCell id="G0A-RFpU1yBWGsKyXfba-19" value="(0,N)" style="text;html=1;strokeColor=none;fillColor=none;align=left;verticalAlign=middle;whiteSpace=wrap;rounded=0;fontSize=9;" parent="1" vertex="1">
          <mxGeometry x="176.09000000000015" y="588.9300000000001" width="25.5" height="12.5" as="geometry" />
        </mxCell>
        <mxCell id="G0A-RFpU1yBWGsKyXfba-22" value="corresponde_a" style="text;html=1;strokeColor=none;fillColor=none;align=left;verticalAlign=middle;whiteSpace=wrap;rounded=0;fontSize=9;" parent="1" vertex="1">
          <mxGeometry x="135.19000000000017" y="573.4399999999998" width="50" height="12.5" as="geometry" />
        </mxCell>
        <mxCell id="G0A-RFpU1yBWGsKyXfba-33" value="1:N" style="text;html=1;strokeColor=none;fillColor=none;align=center;verticalAlign=middle;whiteSpace=wrap;rounded=0;fontSize=15;fontStyle=1;direction=east;flipV=0;flipH=0;rotation=90;" parent="1" vertex="1">
          <mxGeometry x="291.2500000000001" y="351.92999999999984" width="22.5" height="15.75" as="geometry" />
        </mxCell>
        <mxCell id="G0A-RFpU1yBWGsKyXfba-39" value="(1,1)" style="text;html=1;strokeColor=none;fillColor=none;align=left;verticalAlign=middle;whiteSpace=wrap;rounded=0;fontSize=9;" parent="1" vertex="1">
          <mxGeometry x="223.40999999999997" y="1155.15" width="25.5" height="12.5" as="geometry" />
        </mxCell>
        <mxCell id="G0A-RFpU1yBWGsKyXfba-40" value="es_un" style="text;html=1;strokeColor=none;fillColor=none;align=left;verticalAlign=middle;whiteSpace=wrap;rounded=0;fontSize=9;" parent="1" vertex="1">
          <mxGeometry x="223.40999999999985" y="1139.4599999999996" width="50" height="12.5" as="geometry" />
        </mxCell>
        <mxCell id="G0A-RFpU1yBWGsKyXfba-50" value="" style="endArrow=none;html=1;rounded=0;fontSize=11;entryX=0.977;entryY=0.341;entryDx=0;entryDy=0;exitX=0;exitY=0.082;exitDx=0;exitDy=0;entryPerimeter=0;exitPerimeter=0;" parent="1" source="wt0K1hmHgsjhLcT-p73o-87" target="wecATSCT4VCs9piwyTyY-57" edge="1">
          <mxGeometry width="50" height="50" relative="1" as="geometry">
            <mxPoint x="353.7100000000001" y="778.0899999999998" as="sourcePoint" />
            <mxPoint x="445.85000000000025" y="666.0300000000001" as="targetPoint" />
          </mxGeometry>
        </mxCell>
        <mxCell id="G0A-RFpU1yBWGsKyXfba-51" value="id" style="text;html=1;strokeColor=none;fillColor=none;align=left;verticalAlign=middle;whiteSpace=wrap;rounded=0;fontSize=9;" parent="1" vertex="1">
          <mxGeometry x="293.93" y="778.07" width="16.07" height="12.5" as="geometry" />
        </mxCell>
        <mxCell id="G0A-RFpU1yBWGsKyXfba-52" value="" style="endArrow=none;html=1;rounded=0;fontSize=10;fontColor=#000000;strokeColor=#000000;exitX=0.006;exitY=0.37;exitDx=0;exitDy=0;entryX=1;entryY=0.5;entryDx=0;entryDy=0;exitPerimeter=0;" parent="1" source="wt0K1hmHgsjhLcT-p73o-87" target="wecATSCT4VCs9piwyTyY-56" edge="1">
          <mxGeometry width="50" height="50" relative="1" as="geometry">
            <mxPoint x="365.71000000000015" y="778.0899999999998" as="sourcePoint" />
            <mxPoint x="445.85000000000025" y="679.0300000000001" as="targetPoint" />
          </mxGeometry>
        </mxCell>
        <mxCell id="G0A-RFpU1yBWGsKyXfba-64" value="(1,1)" style="text;html=1;strokeColor=none;fillColor=none;align=left;verticalAlign=middle;whiteSpace=wrap;rounded=0;fontSize=9;" parent="1" vertex="1">
          <mxGeometry x="398.8600000000001" y="850.89" width="22.5" height="12.5" as="geometry" />
        </mxCell>
        <mxCell id="G0A-RFpU1yBWGsKyXfba-65" value="tiene" style="text;html=1;strokeColor=none;fillColor=none;align=left;verticalAlign=middle;whiteSpace=wrap;rounded=0;fontSize=9;" parent="1" vertex="1">
          <mxGeometry x="399.00000000000017" y="838.7700000000003" width="50" height="12.5" as="geometry" />
        </mxCell>
        <mxCell id="G0A-RFpU1yBWGsKyXfba-70" value="es_convocada" style="text;html=1;strokeColor=none;fillColor=none;align=left;verticalAlign=middle;whiteSpace=wrap;rounded=0;fontSize=9;" parent="1" vertex="1">
          <mxGeometry x="572.2899999999997" y="513.69" width="55" height="12.5" as="geometry" />
        </mxCell>
        <mxCell id="G0A-RFpU1yBWGsKyXfba-71" value="(1,1)" style="text;html=1;strokeColor=none;fillColor=none;align=left;verticalAlign=middle;whiteSpace=wrap;rounded=0;fontSize=9;" parent="1" vertex="1">
          <mxGeometry x="572.2899999999997" y="529.3100000000001" width="25.5" height="12.5" as="geometry" />
        </mxCell>
        <mxCell id="G0A-RFpU1yBWGsKyXfba-87" value="" style="ellipse;whiteSpace=wrap;html=1;aspect=fixed;fillColor=#CCCCCC;strokeColor=#000000;fontColor=#000000;" parent="1" vertex="1">
          <mxGeometry x="612.9200000000001" y="992.56" width="11" height="11" as="geometry" />
        </mxCell>
        <mxCell id="G0A-RFpU1yBWGsKyXfba-88" value="idRepresentación" style="text;html=1;strokeColor=none;fillColor=none;align=left;verticalAlign=middle;whiteSpace=wrap;rounded=0;fontSize=9;" parent="1" vertex="1">
          <mxGeometry x="625.0400000000002" y="994.7200000000003" width="22.74" height="8.75" as="geometry" />
        </mxCell>
        <mxCell id="G0A-RFpU1yBWGsKyXfba-92" style="edgeStyle=orthogonalEdgeStyle;rounded=0;orthogonalLoop=1;jettySize=auto;html=1;exitX=0;exitY=0.5;exitDx=0;exitDy=0;strokeColor=default;endArrow=none;endFill=0;" parent="1" edge="1" source="G0A-RFpU1yBWGsKyXfba-87">
          <mxGeometry relative="1" as="geometry">
            <mxPoint x="612.4099999998973" y="1023.0999999999999" as="sourcePoint" />
            <mxPoint x="579" y="998" as="targetPoint" />
          </mxGeometry>
        </mxCell>
        <mxCell id="G0A-RFpU1yBWGsKyXfba-95" value="(1,1)" style="text;html=1;strokeColor=none;fillColor=none;align=left;verticalAlign=middle;whiteSpace=wrap;rounded=0;fontSize=9;" parent="1" vertex="1">
          <mxGeometry x="486.83" y="563.2" width="25.5" height="12.5" as="geometry" />
        </mxCell>
        <mxCell id="G0A-RFpU1yBWGsKyXfba-96" value="representa" style="text;html=1;strokeColor=none;fillColor=none;align=left;verticalAlign=middle;whiteSpace=wrap;rounded=0;fontSize=9;" parent="1" vertex="1">
          <mxGeometry x="464.3300000000002" y="577.1399999999999" width="50" height="12.5" as="geometry" />
        </mxCell>
        <mxCell id="5XtZwni91hWJkgiUzxf1-26" style="edgeStyle=orthogonalEdgeStyle;rounded=0;orthogonalLoop=1;jettySize=auto;html=1;exitX=1;exitY=0.5;exitDx=0;exitDy=0;" parent="1" source="wecATSCT4VCs9piwyTyY-1" target="yooLV80YAIJDi9W8emZc-2" edge="1">
          <mxGeometry relative="1" as="geometry" />
        </mxCell>
        <mxCell id="wecATSCT4VCs9piwyTyY-1" value="&lt;font style=&quot;font-size: 7px;&quot;&gt;&amp;nbsp; &amp;nbsp; &amp;nbsp;&amp;nbsp;&lt;/font&gt;&lt;font style=&quot;font-size: 6px;&quot;&gt;&amp;nbsp; &amp;nbsp;Usu-Convo&lt;/font&gt;" style="shape=rhombus;perimeter=rhombusPerimeter;whiteSpace=wrap;html=1;align=left;fontStyle=1;fontSize=10;" parent="1" vertex="1">
          <mxGeometry x="374.83000000000004" y="1122.9099999999999" width="60" height="60" as="geometry" />
        </mxCell>
        <mxCell id="wecATSCT4VCs9piwyTyY-2" value="1:N" style="text;html=1;strokeColor=none;fillColor=none;align=center;verticalAlign=middle;whiteSpace=wrap;rounded=0;fontSize=15;fontStyle=1;" parent="1" vertex="1">
          <mxGeometry x="393.62" y="1101.03" width="22.43" height="20" as="geometry" />
        </mxCell>
        <mxCell id="MZVE_0cD1qcKKRb-JRrY-138" style="edgeStyle=orthogonalEdgeStyle;rounded=0;orthogonalLoop=1;jettySize=auto;html=1;exitX=0;exitY=0.5;exitDx=0;exitDy=0;entryX=1;entryY=0.25;entryDx=0;entryDy=0;" edge="1" parent="1" source="wecATSCT4VCs9piwyTyY-3" target="MmX11wm5HvuTR1FrTXqp-397">
          <mxGeometry relative="1" as="geometry" />
        </mxCell>
        <mxCell id="wecATSCT4VCs9piwyTyY-3" value="ID" style="text;html=1;strokeColor=none;fillColor=none;align=center;verticalAlign=middle;whiteSpace=wrap;rounded=0;fontSize=8;fontStyle=1;" parent="1" vertex="1">
          <mxGeometry x="376.53999999999996" y="1143.03" width="12.43" height="20" as="geometry" />
        </mxCell>
        <mxCell id="wecATSCT4VCs9piwyTyY-7" value="(1,1)" style="text;html=1;strokeColor=none;fillColor=none;align=left;verticalAlign=middle;whiteSpace=wrap;rounded=0;fontSize=9;" parent="1" vertex="1">
          <mxGeometry x="135.18999999999994" y="1122.76" width="25.5" height="12.5" as="geometry" />
        </mxCell>
        <mxCell id="wecATSCT4VCs9piwyTyY-8" value="es_un" style="text;html=1;strokeColor=none;fillColor=none;align=left;verticalAlign=middle;whiteSpace=wrap;rounded=0;fontSize=9;" parent="1" vertex="1">
          <mxGeometry x="135.18999999999994" y="1108.6799999999996" width="50" height="12.5" as="geometry" />
        </mxCell>
        <mxCell id="wecATSCT4VCs9piwyTyY-9" value="(0,N)" style="text;html=1;strokeColor=none;fillColor=none;align=left;verticalAlign=middle;whiteSpace=wrap;rounded=0;fontSize=9;" parent="1" vertex="1">
          <mxGeometry x="428.2900000000002" y="997.73" width="25.5" height="12.5" as="geometry" />
        </mxCell>
        <mxCell id="wecATSCT4VCs9piwyTyY-12" value="corresponde_a" style="text;html=1;strokeColor=none;fillColor=none;align=left;verticalAlign=middle;whiteSpace=wrap;rounded=0;fontSize=9;" parent="1" vertex="1">
          <mxGeometry x="394.00000000000034" y="1013.0000000000002" width="50" height="12.5" as="geometry" />
        </mxCell>
        <mxCell id="wecATSCT4VCs9piwyTyY-13" value="(0,N)" style="text;html=1;strokeColor=none;fillColor=none;align=left;verticalAlign=middle;whiteSpace=wrap;rounded=0;fontSize=9;" parent="1" vertex="1">
          <mxGeometry x="267.00000000000017" y="529.78" width="22.5" height="12.5" as="geometry" />
        </mxCell>
        <mxCell id="wecATSCT4VCs9piwyTyY-14" value="es_representada" style="text;html=1;strokeColor=none;fillColor=none;align=left;verticalAlign=middle;whiteSpace=wrap;rounded=0;fontSize=9;" parent="1" vertex="1">
          <mxGeometry x="264.75000000000017" y="541.72" width="50" height="12.5" as="geometry" />
        </mxCell>
        <mxCell id="5XtZwni91hWJkgiUzxf1-12" style="edgeStyle=orthogonalEdgeStyle;rounded=0;orthogonalLoop=1;jettySize=auto;html=1;exitX=0.5;exitY=1;exitDx=0;exitDy=0;entryX=0.488;entryY=0.008;entryDx=0;entryDy=0;entryPerimeter=0;" parent="1" source="wecATSCT4VCs9piwyTyY-21" edge="1">
          <mxGeometry relative="1" as="geometry">
            <mxPoint x="149.69000000000005" y="470.7899999999998" as="targetPoint" />
          </mxGeometry>
        </mxCell>
        <mxCell id="MZVE_0cD1qcKKRb-JRrY-152" style="edgeStyle=orthogonalEdgeStyle;rounded=0;orthogonalLoop=1;jettySize=auto;html=1;exitX=0.5;exitY=0;exitDx=0;exitDy=0;entryX=0;entryY=0.5;entryDx=0;entryDy=0;" edge="1" parent="1" source="wecATSCT4VCs9piwyTyY-21" target="nRg5Bw-d5btuzyKWFaWI-10">
          <mxGeometry relative="1" as="geometry" />
        </mxCell>
        <mxCell id="wecATSCT4VCs9piwyTyY-21" value="TipCt -Ct" style="shape=rhombus;perimeter=rhombusPerimeter;whiteSpace=wrap;html=1;align=center;fontStyle=1;fontSize=10;" parent="1" vertex="1">
          <mxGeometry x="120.54000000000008" y="329.76000000000005" width="60" height="60" as="geometry" />
        </mxCell>
        <mxCell id="wecATSCT4VCs9piwyTyY-22" value="ID" style="text;html=1;strokeColor=none;fillColor=none;align=center;verticalAlign=middle;whiteSpace=wrap;rounded=0;fontSize=8;fontStyle=1;" parent="1" vertex="1">
          <mxGeometry x="145.31999999999994" y="375.76000000000005" width="12.43" height="9.31" as="geometry" />
        </mxCell>
        <mxCell id="wecATSCT4VCs9piwyTyY-23" value="" style="endArrow=none;html=1;rounded=0;exitX=1;exitY=0;exitDx=0;exitDy=0;entryX=0;entryY=0;entryDx=0;entryDy=0;" parent="1" edge="1">
          <mxGeometry width="50" height="50" relative="1" as="geometry">
            <mxPoint x="165.53999999999996" y="374.76000000000005" as="sourcePoint" />
            <mxPoint x="135.53999999999996" y="374.76000000000005" as="targetPoint" />
          </mxGeometry>
        </mxCell>
        <mxCell id="wecATSCT4VCs9piwyTyY-24" value="N:1" style="text;html=1;strokeColor=none;fillColor=none;align=center;verticalAlign=middle;whiteSpace=wrap;rounded=0;fontSize=15;fontStyle=1;rotation=90;" parent="1" vertex="1">
          <mxGeometry x="182.43999999999994" y="348.9500000000001" width="22.43" height="20" as="geometry" />
        </mxCell>
        <mxCell id="5XtZwni91hWJkgiUzxf1-32" style="edgeStyle=orthogonalEdgeStyle;rounded=0;orthogonalLoop=1;jettySize=auto;html=1;exitX=0.5;exitY=1;exitDx=0;exitDy=0;entryX=0.418;entryY=0.03;entryDx=0;entryDy=0;entryPerimeter=0;" parent="1" source="wecATSCT4VCs9piwyTyY-35" target="wt0K1hmHgsjhLcT-p73o-87" edge="1">
          <mxGeometry relative="1" as="geometry" />
        </mxCell>
        <mxCell id="MZVE_0cD1qcKKRb-JRrY-136" style="edgeStyle=orthogonalEdgeStyle;rounded=0;orthogonalLoop=1;jettySize=auto;html=1;exitX=0.5;exitY=0;exitDx=0;exitDy=0;entryX=1;entryY=0.75;entryDx=0;entryDy=0;" edge="1" parent="1" source="wecATSCT4VCs9piwyTyY-35" target="G0A-RFpU1yBWGsKyXfba-1">
          <mxGeometry relative="1" as="geometry" />
        </mxCell>
        <mxCell id="wecATSCT4VCs9piwyTyY-35" value="&lt;font style=&quot;font-size: 7px;&quot;&gt;Repres - MiJu&lt;/font&gt;" style="shape=rhombus;perimeter=rhombusPerimeter;whiteSpace=wrap;html=1;align=center;fontStyle=1;fontSize=10;" parent="1" vertex="1">
          <mxGeometry x="360.3799999999998" y="651.4799999999998" width="60" height="60" as="geometry" />
        </mxCell>
        <mxCell id="wecATSCT4VCs9piwyTyY-36" value="ID" style="text;html=1;strokeColor=none;fillColor=none;align=center;verticalAlign=middle;whiteSpace=wrap;rounded=0;fontSize=8;fontStyle=1;" parent="1" vertex="1">
          <mxGeometry x="384.15999999999997" y="694.48" width="12.43" height="14.52" as="geometry" />
        </mxCell>
        <mxCell id="wecATSCT4VCs9piwyTyY-37" value="" style="endArrow=none;html=1;rounded=0;exitX=1;exitY=0;exitDx=0;exitDy=0;entryX=0;entryY=0;entryDx=0;entryDy=0;" parent="1" edge="1">
          <mxGeometry width="50" height="50" relative="1" as="geometry">
            <mxPoint x="405.3799999999998" y="696.4799999999998" as="sourcePoint" />
            <mxPoint x="375.3799999999998" y="696.4799999999998" as="targetPoint" />
          </mxGeometry>
        </mxCell>
        <mxCell id="wecATSCT4VCs9piwyTyY-38" value="1:N" style="text;html=1;strokeColor=none;fillColor=none;align=center;verticalAlign=middle;whiteSpace=wrap;rounded=0;fontSize=15;fontStyle=1;rotation=-90;" parent="1" vertex="1">
          <mxGeometry x="335.3799999999998" y="670.0399999999997" width="22.43" height="20" as="geometry" />
        </mxCell>
        <mxCell id="wecATSCT4VCs9piwyTyY-39" value="(0,N)" style="text;html=1;strokeColor=none;fillColor=none;align=left;verticalAlign=middle;whiteSpace=wrap;rounded=0;fontSize=9;" parent="1" vertex="1">
          <mxGeometry x="521.9600000000002" y="1049.75" width="25.5" height="12.5" as="geometry" />
        </mxCell>
        <mxCell id="wecATSCT4VCs9piwyTyY-40" value="corresponde_a" style="text;html=1;strokeColor=none;fillColor=none;align=left;verticalAlign=middle;whiteSpace=wrap;rounded=0;fontSize=9;" parent="1" vertex="1">
          <mxGeometry x="523.0300000000002" y="1038.5400000000002" width="50" height="12.5" as="geometry" />
        </mxCell>
        <mxCell id="5XtZwni91hWJkgiUzxf1-33" style="edgeStyle=orthogonalEdgeStyle;rounded=0;orthogonalLoop=1;jettySize=auto;html=1;exitX=0.51;exitY=0;exitDx=0;exitDy=0;entryX=0.443;entryY=1.01;entryDx=0;entryDy=0;entryPerimeter=0;exitPerimeter=0;" parent="1" source="wecATSCT4VCs9piwyTyY-43" target="wt0K1hmHgsjhLcT-p73o-87" edge="1">
          <mxGeometry relative="1" as="geometry">
            <mxPoint x="392.7900000000004" y="899.4700000000005" as="sourcePoint" />
          </mxGeometry>
        </mxCell>
        <mxCell id="MZVE_0cD1qcKKRb-JRrY-100" style="edgeStyle=orthogonalEdgeStyle;rounded=0;orthogonalLoop=1;jettySize=auto;html=1;exitX=0.5;exitY=1;exitDx=0;exitDy=0;entryX=0;entryY=0.75;entryDx=0;entryDy=0;" edge="1" parent="1" source="wecATSCT4VCs9piwyTyY-43" target="yooLV80YAIJDi9W8emZc-2">
          <mxGeometry relative="1" as="geometry" />
        </mxCell>
        <mxCell id="wecATSCT4VCs9piwyTyY-43" value="&lt;font style=&quot;font-size: 8px;&quot;&gt;Repres-MiCom&lt;/font&gt;" style="shape=rhombus;perimeter=rhombusPerimeter;whiteSpace=wrap;html=1;align=center;fontStyle=1;fontSize=10;" parent="1" vertex="1">
          <mxGeometry x="361.7900000000002" y="899.4700000000003" width="60" height="60" as="geometry" />
        </mxCell>
        <mxCell id="wecATSCT4VCs9piwyTyY-44" value="1:N" style="text;html=1;strokeColor=none;fillColor=none;align=center;verticalAlign=middle;whiteSpace=wrap;rounded=0;fontSize=15;fontStyle=1;rotation=90;" parent="1" vertex="1">
          <mxGeometry x="421.7900000000002" y="919.7200000000003" width="22.5" height="15.75" as="geometry" />
        </mxCell>
        <mxCell id="wecATSCT4VCs9piwyTyY-45" value="" style="endArrow=none;html=1;rounded=0;fontColor=#000000;strokeColor=#000000;exitX=1;exitY=1;exitDx=0;exitDy=0;entryX=0;entryY=1;entryDx=0;entryDy=0;" parent="1" edge="1">
          <mxGeometry width="50" height="50" relative="1" as="geometry">
            <mxPoint x="406.7900000000002" y="914.4700000000003" as="sourcePoint" />
            <mxPoint x="376.7900000000002" y="914.4700000000003" as="targetPoint" />
          </mxGeometry>
        </mxCell>
        <mxCell id="wecATSCT4VCs9piwyTyY-46" value="ID" style="text;html=1;strokeColor=none;fillColor=none;align=center;verticalAlign=middle;whiteSpace=wrap;rounded=0;fontSize=8;fontStyle=1;" parent="1" vertex="1">
          <mxGeometry x="386.1700000000003" y="902.9700000000003" width="11.25" height="12" as="geometry" />
        </mxCell>
        <mxCell id="wecATSCT4VCs9piwyTyY-50" value="&lt;h1&gt;Representación&lt;/h1&gt;&lt;p&gt;&lt;span style=&quot;background-color: initial;&quot;&gt;Director/a ó Decano/a (DIR), Secretario/a (SECRE), Profesorado vinculación permanente (PDI_VP), Personal Docente e Investigador (PDI), Personal de Administración y Servicios (PAS), estudiantes (EST), Designados por el Director/a ó Decano/a (LIBRE)&lt;/span&gt;&lt;br&gt;&lt;/p&gt;" style="text;html=1;strokeColor=none;fillColor=none;spacing=5;spacingTop=-20;whiteSpace=wrap;overflow=hidden;rounded=0;fontStyle=2;" parent="1" vertex="1">
          <mxGeometry x="604.77" y="1244" width="340.21" height="122.69" as="geometry" />
        </mxCell>
        <mxCell id="wecATSCT4VCs9piwyTyY-54" value="&lt;h1&gt;Tipo Centro&lt;/h1&gt;&lt;p&gt;Facultad, Escuela, Otro&lt;br&gt;&lt;/p&gt;" style="text;html=1;strokeColor=none;fillColor=none;spacing=5;spacingTop=-20;whiteSpace=wrap;overflow=hidden;rounded=0;fontStyle=2;" parent="1" vertex="1">
          <mxGeometry x="95.01" y="1258" width="164.99" height="81.41" as="geometry" />
        </mxCell>
        <mxCell id="wecATSCT4VCs9piwyTyY-55" value="nombre" style="text;html=1;strokeColor=none;fillColor=none;align=left;verticalAlign=middle;whiteSpace=wrap;rounded=0;fontSize=9;" parent="1" vertex="1">
          <mxGeometry x="272.11" y="793.25" width="37.5" height="12.5" as="geometry" />
        </mxCell>
        <mxCell id="wecATSCT4VCs9piwyTyY-56" value="" style="ellipse;whiteSpace=wrap;html=1;aspect=fixed;fillColor=#FFFFFF;strokeColor=#000000;fontColor=#000000;" parent="1" vertex="1">
          <mxGeometry x="310.16" y="794.08" width="11" height="11" as="geometry" />
        </mxCell>
        <mxCell id="wecATSCT4VCs9piwyTyY-57" value="" style="ellipse;whiteSpace=wrap;html=1;aspect=fixed;fillColor=#000000;strokeColor=#000000;fontColor=#000000;" parent="1" vertex="1">
          <mxGeometry x="310.14000000000016" y="777.82" width="11" height="11" as="geometry" />
        </mxCell>
        <mxCell id="wecATSCT4VCs9piwyTyY-61" value="(1,1)" style="text;html=1;strokeColor=none;fillColor=none;align=left;verticalAlign=middle;whiteSpace=wrap;rounded=0;fontSize=9;" parent="1" vertex="1">
          <mxGeometry x="395.2900000000001" y="762.23" width="22.5" height="12.5" as="geometry" />
        </mxCell>
        <mxCell id="wecATSCT4VCs9piwyTyY-62" value="tiene" style="text;html=1;strokeColor=none;fillColor=none;align=left;verticalAlign=middle;whiteSpace=wrap;rounded=0;fontSize=9;" parent="1" vertex="1">
          <mxGeometry x="395.2900000000002" y="750.0900000000004" width="50" height="12.5" as="geometry" />
        </mxCell>
        <mxCell id="wecATSCT4VCs9piwyTyY-67" value="&lt;h1&gt;Tipo Convocatoria&lt;/h1&gt;&lt;p&gt;Ordinaria, extraordinaria, urgente&lt;br&gt;&lt;/p&gt;" style="text;html=1;strokeColor=none;fillColor=none;spacing=5;spacingTop=-20;whiteSpace=wrap;overflow=hidden;rounded=0;fontStyle=2;" parent="1" vertex="1">
          <mxGeometry x="335.07" y="1258" width="221.93" height="81.41" as="geometry" />
        </mxCell>
        <mxCell id="5XtZwni91hWJkgiUzxf1-18" value="(1,1)" style="text;html=1;strokeColor=none;fillColor=none;align=left;verticalAlign=middle;whiteSpace=wrap;rounded=0;fontSize=9;" parent="1" vertex="1">
          <mxGeometry x="696.4900000000001" y="261.05" width="25.5" height="12.5" as="geometry" />
        </mxCell>
        <mxCell id="5XtZwni91hWJkgiUzxf1-19" value="es_gestionada" style="text;html=1;strokeColor=none;fillColor=none;align=left;verticalAlign=middle;whiteSpace=wrap;rounded=0;fontSize=9;" parent="1" vertex="1">
          <mxGeometry x="694.9900000000001" y="274.55" width="55" height="12.5" as="geometry" />
        </mxCell>
        <mxCell id="5XtZwni91hWJkgiUzxf1-23" value="" style="endArrow=none;html=1;rounded=0;exitX=0;exitY=0;exitDx=0;exitDy=0;entryX=0;entryY=1;entryDx=0;entryDy=0;" parent="1" edge="1">
          <mxGeometry width="50" height="50" relative="1" as="geometry">
            <mxPoint x="388.97" y="1138.1499999999996" as="sourcePoint" />
            <mxPoint x="388.97" y="1168.1499999999996" as="targetPoint" />
          </mxGeometry>
        </mxCell>
        <mxCell id="5XtZwni91hWJkgiUzxf1-27" value="Usu-MiJu" style="shape=rhombus;perimeter=rhombusPerimeter;whiteSpace=wrap;html=1;align=center;fontStyle=1;fontSize=10;" parent="1" vertex="1">
          <mxGeometry x="101.15999999999985" y="818.5199999999999" width="60" height="60" as="geometry" />
        </mxCell>
        <mxCell id="5XtZwni91hWJkgiUzxf1-28" value="ID" style="text;html=1;strokeColor=none;fillColor=none;align=center;verticalAlign=middle;whiteSpace=wrap;rounded=0;fontSize=8;fontStyle=1;" parent="1" vertex="1">
          <mxGeometry x="124.93999999999983" y="858.52" width="12.43" height="20" as="geometry" />
        </mxCell>
        <mxCell id="5XtZwni91hWJkgiUzxf1-29" value="" style="endArrow=none;html=1;rounded=0;exitX=1;exitY=0;exitDx=0;exitDy=0;entryX=0;entryY=0;entryDx=0;entryDy=0;" parent="1" edge="1">
          <mxGeometry width="50" height="50" relative="1" as="geometry">
            <mxPoint x="146.15999999999985" y="863.52" as="sourcePoint" />
            <mxPoint x="116.15999999999985" y="863.52" as="targetPoint" />
          </mxGeometry>
        </mxCell>
        <mxCell id="5XtZwni91hWJkgiUzxf1-30" value="1:N" style="text;html=1;strokeColor=none;fillColor=none;align=center;verticalAlign=middle;whiteSpace=wrap;rounded=0;fontSize=15;fontStyle=1;rotation=-90;" parent="1" vertex="1">
          <mxGeometry x="76.04999999999984" y="838.5199999999998" width="22.43" height="20" as="geometry" />
        </mxCell>
        <mxCell id="5XtZwni91hWJkgiUzxf1-36" value="(0,N)" style="text;html=1;strokeColor=none;fillColor=none;align=left;verticalAlign=middle;whiteSpace=wrap;rounded=0;fontSize=9;" parent="1" vertex="1">
          <mxGeometry x="320.7200000000002" y="588.7600000000001" width="25.5" height="12.5" as="geometry" />
        </mxCell>
        <mxCell id="5XtZwni91hWJkgiUzxf1-37" value="corresponde_a" style="text;html=1;strokeColor=none;fillColor=none;align=left;verticalAlign=middle;whiteSpace=wrap;rounded=0;fontSize=9;" parent="1" vertex="1">
          <mxGeometry x="318.73000000000036" y="602.4500000000003" width="50" height="12.5" as="geometry" />
        </mxCell>
        <mxCell id="G0A-RFpU1yBWGsKyXfba-4" value="idUsuario" style="text;html=1;strokeColor=none;fillColor=none;align=left;verticalAlign=middle;whiteSpace=wrap;rounded=0;fontSize=9;rotation=0;" parent="1" vertex="1">
          <mxGeometry x="245.94000000000005" y="705.4799999999998" width="65" height="12.5" as="geometry" />
        </mxCell>
        <mxCell id="G0A-RFpU1yBWGsKyXfba-5" value="" style="ellipse;whiteSpace=wrap;html=1;aspect=fixed;fillColor=#CCCCCC;strokeColor=#000000;fontColor=#000000;gradientColor=default;gradientDirection=west;rotation=-180;" parent="1" vertex="1">
          <mxGeometry x="288.94000000000005" y="706.4799999999998" width="11" height="11" as="geometry" />
        </mxCell>
        <mxCell id="G0A-RFpU1yBWGsKyXfba-6" value="" style="ellipse;whiteSpace=wrap;html=1;aspect=fixed;fillColor=#CCCCCC;strokeColor=#000000;fontColor=#000000;gradientColor=default;gradientDirection=west;rotation=-180;" parent="1" vertex="1">
          <mxGeometry x="276.94000000000005" y="690.4799999999998" width="12.05" height="12.05" as="geometry" />
        </mxCell>
        <mxCell id="G0A-RFpU1yBWGsKyXfba-7" value="idJunta" style="text;html=1;strokeColor=none;fillColor=none;align=left;verticalAlign=middle;whiteSpace=wrap;rounded=0;fontSize=9;rotation=0;" parent="1" vertex="1">
          <mxGeometry x="241.94" y="690.48" width="28.06" height="12.5" as="geometry" />
        </mxCell>
        <mxCell id="G0A-RFpU1yBWGsKyXfba-8" value="fechaTomaPosesión" style="text;html=1;strokeColor=none;fillColor=none;align=left;verticalAlign=middle;whiteSpace=wrap;rounded=0;fontSize=9;rotation=0;" parent="1" vertex="1">
          <mxGeometry x="177.94000000000005" y="677.4799999999998" width="75" height="12.5" as="geometry" />
        </mxCell>
        <mxCell id="G0A-RFpU1yBWGsKyXfba-9" value="" style="ellipse;whiteSpace=wrap;html=1;aspect=fixed;fillColor=#FFFFFF;strokeColor=#000000;fontColor=#000000;rotation=-180;" parent="1" vertex="1">
          <mxGeometry x="262.94000000000005" y="678.4799999999998" width="11" height="11" as="geometry" />
        </mxCell>
        <mxCell id="G0A-RFpU1yBWGsKyXfba-10" value="fechaCese" style="text;html=1;strokeColor=none;fillColor=none;align=left;verticalAlign=middle;whiteSpace=wrap;rounded=0;fontSize=9;rotation=0;" parent="1" vertex="1">
          <mxGeometry x="199.94000000000005" y="664.4799999999998" width="75" height="12.5" as="geometry" />
        </mxCell>
        <mxCell id="G0A-RFpU1yBWGsKyXfba-11" value="" style="ellipse;whiteSpace=wrap;html=1;aspect=fixed;fillColor=#FFFFFF;strokeColor=#000000;fontColor=#000000;rotation=-180;" parent="1" vertex="1">
          <mxGeometry x="249.94000000000005" y="665.4799999999998" width="11" height="11" as="geometry" />
        </mxCell>
        <mxCell id="G0A-RFpU1yBWGsKyXfba-12" value="" style="endArrow=none;html=1;rounded=0;fontSize=10;exitX=0.5;exitY=1;exitDx=0;exitDy=0;entryX=0.193;entryY=0.004;entryDx=0;entryDy=0;entryPerimeter=0;" parent="1" source="G0A-RFpU1yBWGsKyXfba-5" edge="1">
          <mxGeometry width="50" height="50" relative="1" as="geometry">
            <mxPoint x="298.94000000000005" y="707.4799999999998" as="sourcePoint" />
            <mxPoint x="293.94000000000005" y="617.4799999999998" as="targetPoint" />
          </mxGeometry>
        </mxCell>
        <mxCell id="G0A-RFpU1yBWGsKyXfba-13" value="" style="endArrow=none;html=1;rounded=0;fontSize=10;exitX=0.5;exitY=1;exitDx=0;exitDy=0;entryX=0.305;entryY=0.004;entryDx=0;entryDy=0;entryPerimeter=0;" parent="1" source="G0A-RFpU1yBWGsKyXfba-6" edge="1">
          <mxGeometry width="50" height="50" relative="1" as="geometry">
            <mxPoint x="288.94000000000005" y="697.4799999999998" as="sourcePoint" />
            <mxPoint x="282.94000000000005" y="617.4799999999998" as="targetPoint" />
          </mxGeometry>
        </mxCell>
        <mxCell id="G0A-RFpU1yBWGsKyXfba-14" value="" style="endArrow=none;html=1;rounded=0;fontSize=10;exitX=0.5;exitY=1;exitDx=0;exitDy=0;entryX=0.449;entryY=0.009;entryDx=0;entryDy=0;entryPerimeter=0;" parent="1" source="G0A-RFpU1yBWGsKyXfba-9" edge="1">
          <mxGeometry width="50" height="50" relative="1" as="geometry">
            <mxPoint x="272.94000000000005" y="673.4799999999998" as="sourcePoint" />
            <mxPoint x="267.94000000000005" y="617.4799999999998" as="targetPoint" />
          </mxGeometry>
        </mxCell>
        <mxCell id="G0A-RFpU1yBWGsKyXfba-15" value="" style="endArrow=none;html=1;rounded=0;fontSize=10;exitX=0.5;exitY=1;exitDx=0;exitDy=0;entryX=0.586;entryY=0.009;entryDx=0;entryDy=0;entryPerimeter=0;dashed=1;" parent="1" source="G0A-RFpU1yBWGsKyXfba-11" edge="1">
          <mxGeometry width="50" height="50" relative="1" as="geometry">
            <mxPoint x="258.94000000000005" y="662.4799999999998" as="sourcePoint" />
            <mxPoint x="254.94000000000005" y="617.4799999999998" as="targetPoint" />
          </mxGeometry>
        </mxCell>
        <mxCell id="G0A-RFpU1yBWGsKyXfba-16" value="idRepresentación" style="text;html=1;strokeColor=none;fillColor=none;align=left;verticalAlign=middle;whiteSpace=wrap;rounded=0;fontSize=9;rotation=0;" parent="1" vertex="1">
          <mxGeometry x="158" y="651.48" width="41.94" height="12.5" as="geometry" />
        </mxCell>
        <mxCell id="G0A-RFpU1yBWGsKyXfba-17" value="" style="ellipse;whiteSpace=wrap;html=1;aspect=fixed;fillColor=#CCCCCC;strokeColor=#000000;fontColor=#000000;rotation=-180;" parent="1" vertex="1">
          <mxGeometry x="233.94000000000005" y="651.4799999999998" width="11" height="11" as="geometry" />
        </mxCell>
        <mxCell id="G0A-RFpU1yBWGsKyXfba-18" value="" style="endArrow=none;html=1;rounded=0;fontSize=10;exitX=0.5;exitY=1;exitDx=0;exitDy=0;entryX=0.73;entryY=0.009;entryDx=0;entryDy=0;entryPerimeter=0;" parent="1" source="G0A-RFpU1yBWGsKyXfba-17" edge="1">
          <mxGeometry width="50" height="50" relative="1" as="geometry">
            <mxPoint x="243.94000000000005" y="645.4799999999998" as="sourcePoint" />
            <mxPoint x="239.94000000000005" y="617.4799999999998" as="targetPoint" />
          </mxGeometry>
        </mxCell>
        <mxCell id="PsM71WcQH-rANuCzt_X1-30" value="" style="endArrow=none;html=1;rounded=0;entryX=0.003;entryY=0.154;entryDx=0;entryDy=0;exitX=1;exitY=0.5;exitDx=0;exitDy=0;dashed=1;entryPerimeter=0;" parent="1" source="MmX11wm5HvuTR1FrTXqp-334" target="MmX11wm5HvuTR1FrTXqp-278" edge="1">
          <mxGeometry width="50" height="50" relative="1" as="geometry">
            <mxPoint x="717.8900000000001" y="831.2500000000006" as="sourcePoint" />
            <mxPoint x="718.1000000000001" y="841.9900000000004" as="targetPoint" />
          </mxGeometry>
        </mxCell>
        <mxCell id="6u45t9O6w8vaVHluXfsB-1" value="Convocado" style="whiteSpace=wrap;html=1;align=center;points=[[0,0,0,0,0],[0,0.25,0,0,0],[0,0.5,0,0,0],[0,0.75,0,0,0],[0,1,0,0,0],[0.12,0,0,0,0],[0.25,0,0,0,0],[0.25,1,0,0,0],[0.38,0,0,0,0],[0.5,0,0,0,0],[0.5,1,0,0,0],[0.63,0,0,0,0],[0.75,0,0,0,0],[0.75,1,0,0,0],[0.88,0,0,0,0],[1,0,0,0,0],[1,0.25,0,0,0],[1,0.5,0,0,0],[1,0.75,0,0,0],[1,1,0,0,0]];" parent="1" vertex="1">
          <mxGeometry x="718.99" y="1140.1500000000005" width="100" height="60" as="geometry" />
        </mxCell>
        <mxCell id="6u45t9O6w8vaVHluXfsB-28" value="asiste" style="text;html=1;strokeColor=none;fillColor=none;align=left;verticalAlign=middle;whiteSpace=wrap;rounded=0;fontSize=9;" parent="1" vertex="1">
          <mxGeometry x="863.6599999999999" y="1178.87" width="65" height="12.5" as="geometry" />
        </mxCell>
        <mxCell id="6u45t9O6w8vaVHluXfsB-29" value="" style="ellipse;whiteSpace=wrap;html=1;aspect=fixed;fillColor=#FFFFFF;strokeColor=#000000;fontColor=#000000;" parent="1" vertex="1">
          <mxGeometry x="852.6600000000001" y="1179.13" width="11" height="11" as="geometry" />
        </mxCell>
        <mxCell id="6u45t9O6w8vaVHluXfsB-30" value="" style="ellipse;whiteSpace=wrap;html=1;aspect=fixed;fillColor=#FFFFFF;strokeColor=#000000;fontColor=#000000;" parent="1" vertex="1">
          <mxGeometry x="852.6600000000001" y="1193.63" width="11" height="11" as="geometry" />
        </mxCell>
        <mxCell id="6u45t9O6w8vaVHluXfsB-31" value="notificado" style="text;html=1;strokeColor=none;fillColor=none;align=left;verticalAlign=middle;whiteSpace=wrap;rounded=0;fontSize=9;" parent="1" vertex="1">
          <mxGeometry x="864.3699999999999" y="1192.13" width="45.06" height="12.5" as="geometry" />
        </mxCell>
        <mxCell id="6u45t9O6w8vaVHluXfsB-32" value="idConvocatoria" style="text;html=1;strokeColor=none;fillColor=none;align=left;verticalAlign=middle;whiteSpace=wrap;rounded=0;fontSize=9;" parent="1" vertex="1">
          <mxGeometry x="864.29" y="1166.79" width="28.52" height="10" as="geometry" />
        </mxCell>
        <mxCell id="6u45t9O6w8vaVHluXfsB-33" value="idUsuario" style="text;html=1;strokeColor=none;fillColor=none;align=left;verticalAlign=middle;whiteSpace=wrap;rounded=0;fontSize=9;" parent="1" vertex="1">
          <mxGeometry x="864.44" y="1153.23" width="35.52" height="9.38" as="geometry" />
        </mxCell>
        <mxCell id="6u45t9O6w8vaVHluXfsB-34" style="edgeStyle=orthogonalEdgeStyle;rounded=0;orthogonalLoop=1;jettySize=auto;html=1;exitX=0;exitY=0.5;exitDx=0;exitDy=0;strokeColor=default;endArrow=none;endFill=0;entryX=1.003;entryY=0.135;entryDx=0;entryDy=0;entryPerimeter=0;" parent="1" source="6u45t9O6w8vaVHluXfsB-35" edge="1">
          <mxGeometry relative="1" as="geometry">
            <mxPoint x="819.2899999999995" y="1156.2500000000005" as="targetPoint" />
          </mxGeometry>
        </mxCell>
        <mxCell id="6u45t9O6w8vaVHluXfsB-35" value="" style="ellipse;whiteSpace=wrap;html=1;aspect=fixed;fillColor=#B3B3B3;strokeColor=#000000;fontColor=#000000;gradientColor=default;gradientDirection=west;" parent="1" vertex="1">
          <mxGeometry x="851.6599999999999" y="1151.6100000000001" width="11" height="11" as="geometry" />
        </mxCell>
        <mxCell id="6u45t9O6w8vaVHluXfsB-36" value="" style="ellipse;whiteSpace=wrap;html=1;aspect=fixed;fillColor=#B3B3B3;strokeColor=#000000;fontColor=#000000;gradientColor=default;gradientDirection=west;" parent="1" vertex="1">
          <mxGeometry x="852.6600000000001" y="1164.79" width="11" height="11" as="geometry" />
        </mxCell>
        <mxCell id="6u45t9O6w8vaVHluXfsB-37" style="edgeStyle=orthogonalEdgeStyle;rounded=0;orthogonalLoop=1;jettySize=auto;html=1;exitX=0;exitY=0.5;exitDx=0;exitDy=0;entryX=1;entryY=0.25;entryDx=0;entryDy=0;strokeColor=default;endArrow=none;endFill=0;" parent="1" source="6u45t9O6w8vaVHluXfsB-36" edge="1">
          <mxGeometry relative="1" as="geometry">
            <mxPoint x="862.0899999999999" y="1166.69" as="sourcePoint" />
            <mxPoint x="818.99" y="1170.1399999999999" as="targetPoint" />
          </mxGeometry>
        </mxCell>
        <mxCell id="6u45t9O6w8vaVHluXfsB-39" style="edgeStyle=orthogonalEdgeStyle;rounded=0;orthogonalLoop=1;jettySize=auto;html=1;exitX=0;exitY=0.5;exitDx=0;exitDy=0;strokeColor=default;endArrow=none;endFill=0;dashed=1;entryX=1.001;entryY=0.815;entryDx=0;entryDy=0;entryPerimeter=0;" parent="1" source="6u45t9O6w8vaVHluXfsB-30" edge="1">
          <mxGeometry relative="1" as="geometry">
            <mxPoint x="882.0899999999999" y="1186.69" as="sourcePoint" />
            <mxPoint x="819.0899999999997" y="1197.0500000000004" as="targetPoint" />
          </mxGeometry>
        </mxCell>
        <mxCell id="6u45t9O6w8vaVHluXfsB-43" style="edgeStyle=orthogonalEdgeStyle;rounded=0;orthogonalLoop=1;jettySize=auto;html=1;exitX=0;exitY=0.5;exitDx=0;exitDy=0;entryX=1;entryY=0.668;entryDx=0;entryDy=0;entryPerimeter=0;strokeColor=default;endArrow=none;endFill=0;dashed=1;" parent="1" edge="1">
          <mxGeometry relative="1" as="geometry">
            <mxPoint x="851.5" y="1185.2000000000003" as="sourcePoint" />
            <mxPoint x="817.99" y="1183.3000000000002" as="targetPoint" />
          </mxGeometry>
        </mxCell>
        <mxCell id="6u45t9O6w8vaVHluXfsB-48" value="responsable" style="text;html=1;strokeColor=none;fillColor=none;align=left;verticalAlign=middle;whiteSpace=wrap;rounded=0;fontSize=9;" parent="1" vertex="1">
          <mxGeometry x="623.9999999999999" y="1019.76" width="65" height="12.5" as="geometry" />
        </mxCell>
        <mxCell id="6u45t9O6w8vaVHluXfsB-49" value="" style="ellipse;whiteSpace=wrap;html=1;aspect=fixed;fillColor=#FFFFFF;strokeColor=#000000;fontColor=#000000;" parent="1" vertex="1">
          <mxGeometry x="613.0000000000001" y="1020.0200000000002" width="11" height="11" as="geometry" />
        </mxCell>
        <mxCell id="6u45t9O6w8vaVHluXfsB-50" style="edgeStyle=orthogonalEdgeStyle;rounded=0;orthogonalLoop=1;jettySize=auto;html=1;exitX=0;exitY=0.5;exitDx=0;exitDy=0;strokeColor=default;endArrow=none;endFill=0;entryX=1;entryY=0.75;entryDx=0;entryDy=0;" parent="1" edge="1">
          <mxGeometry relative="1" as="geometry">
            <mxPoint x="613" y="1025.5200000000002" as="sourcePoint" />
            <mxPoint x="579.3299999999999" y="1025.22" as="targetPoint" />
          </mxGeometry>
        </mxCell>
        <mxCell id="6u45t9O6w8vaVHluXfsB-52" value="&lt;font style=&quot;font-size: 7px;&quot;&gt;&amp;nbsp; &amp;nbsp; &amp;nbsp;&amp;nbsp;&lt;/font&gt;&lt;font style=&quot;font-size: 6px;&quot;&gt;&amp;nbsp; &amp;nbsp;Usu-Convo&lt;/font&gt;" style="shape=rhombus;perimeter=rhombusPerimeter;whiteSpace=wrap;html=1;align=left;fontStyle=1;fontSize=10;" parent="1" vertex="1">
          <mxGeometry x="546.44" y="1160.0299999999997" width="60" height="60" as="geometry" />
        </mxCell>
        <mxCell id="6u45t9O6w8vaVHluXfsB-53" value="1:N" style="text;html=1;strokeColor=none;fillColor=none;align=center;verticalAlign=middle;whiteSpace=wrap;rounded=0;fontSize=15;fontStyle=1;" parent="1" vertex="1">
          <mxGeometry x="565.23" y="1138.1499999999999" width="22.43" height="20" as="geometry" />
        </mxCell>
        <mxCell id="6u45t9O6w8vaVHluXfsB-57" style="edgeStyle=orthogonalEdgeStyle;rounded=0;orthogonalLoop=1;jettySize=auto;html=1;exitX=0;exitY=0.5;exitDx=0;exitDy=0;entryX=0.991;entryY=0.856;entryDx=0;entryDy=0;entryPerimeter=0;" parent="1" source="6u45t9O6w8vaVHluXfsB-54" edge="1" target="MmX11wm5HvuTR1FrTXqp-397">
          <mxGeometry relative="1" as="geometry">
            <mxPoint x="-546" y="1181" as="targetPoint" />
          </mxGeometry>
        </mxCell>
        <mxCell id="6u45t9O6w8vaVHluXfsB-54" value="ID" style="text;html=1;strokeColor=none;fillColor=none;align=center;verticalAlign=middle;whiteSpace=wrap;rounded=0;fontSize=8;fontStyle=1;" parent="1" vertex="1">
          <mxGeometry x="548.15" y="1180.1499999999999" width="12.43" height="20" as="geometry" />
        </mxCell>
        <mxCell id="6u45t9O6w8vaVHluXfsB-55" value="" style="endArrow=none;html=1;rounded=0;exitX=0;exitY=0;exitDx=0;exitDy=0;entryX=0;entryY=1;entryDx=0;entryDy=0;" parent="1" edge="1">
          <mxGeometry width="50" height="50" relative="1" as="geometry">
            <mxPoint x="560.58" y="1175.2699999999995" as="sourcePoint" />
            <mxPoint x="560.58" y="1205.2699999999995" as="targetPoint" />
          </mxGeometry>
        </mxCell>
        <mxCell id="6u45t9O6w8vaVHluXfsB-56" style="edgeStyle=orthogonalEdgeStyle;rounded=0;orthogonalLoop=1;jettySize=auto;html=1;exitX=1;exitY=0.5;exitDx=0;exitDy=0;entryX=0.014;entryY=0.841;entryDx=0;entryDy=0;entryPerimeter=0;" parent="1" source="6u45t9O6w8vaVHluXfsB-52" target="6u45t9O6w8vaVHluXfsB-1" edge="1">
          <mxGeometry relative="1" as="geometry">
            <mxPoint x="704" y="1174" as="targetPoint" />
          </mxGeometry>
        </mxCell>
        <mxCell id="6u45t9O6w8vaVHluXfsB-58" value="(1,1)" style="text;html=1;strokeColor=none;fillColor=none;align=left;verticalAlign=middle;whiteSpace=wrap;rounded=0;fontSize=9;" parent="1" vertex="1">
          <mxGeometry x="222.76" y="1190.6200000000001" width="25.5" height="12.5" as="geometry" />
        </mxCell>
        <mxCell id="6u45t9O6w8vaVHluXfsB-59" value="es_un" style="text;html=1;strokeColor=none;fillColor=none;align=left;verticalAlign=middle;whiteSpace=wrap;rounded=0;fontSize=9;" parent="1" vertex="1">
          <mxGeometry x="222.76" y="1174.9299999999996" width="50" height="12.5" as="geometry" />
        </mxCell>
        <mxCell id="6u45t9O6w8vaVHluXfsB-60" value="Conv-Convo" style="shape=rhombus;perimeter=rhombusPerimeter;whiteSpace=wrap;html=1;align=center;fontStyle=1;fontSize=10;" parent="1" vertex="1">
          <mxGeometry x="732.01" y="980.52" width="60" height="60" as="geometry" />
        </mxCell>
        <mxCell id="6u45t9O6w8vaVHluXfsB-61" value="ID" style="text;html=1;strokeColor=none;fillColor=none;align=center;verticalAlign=middle;whiteSpace=wrap;rounded=0;fontSize=8;fontStyle=1;" parent="1" vertex="1">
          <mxGeometry x="755.8" y="980.52" width="12.43" height="20" as="geometry" />
        </mxCell>
        <mxCell id="6u45t9O6w8vaVHluXfsB-62" value="" style="endArrow=none;html=1;rounded=0;exitX=1;exitY=0;exitDx=0;exitDy=0;entryX=0;entryY=0;entryDx=0;entryDy=0;" parent="1" source="6u45t9O6w8vaVHluXfsB-60" target="6u45t9O6w8vaVHluXfsB-60" edge="1">
          <mxGeometry width="50" height="50" relative="1" as="geometry">
            <mxPoint x="642.01" y="1000.8900000000001" as="sourcePoint" />
            <mxPoint x="692.01" y="950.8899999999999" as="targetPoint" />
          </mxGeometry>
        </mxCell>
        <mxCell id="6u45t9O6w8vaVHluXfsB-63" value="1:N" style="text;html=1;strokeColor=none;fillColor=none;align=center;verticalAlign=middle;whiteSpace=wrap;rounded=0;fontSize=15;fontStyle=1;direction=east;flipV=0;flipH=0;rotation=90;" parent="1" vertex="1">
          <mxGeometry x="792.0100000000001" y="1000.76" width="22.5" height="15.75" as="geometry" />
        </mxCell>
        <mxCell id="6u45t9O6w8vaVHluXfsB-64" style="edgeStyle=orthogonalEdgeStyle;rounded=0;orthogonalLoop=1;jettySize=auto;html=1;exitX=0.5;exitY=1;exitDx=0;exitDy=0;entryX=0.428;entryY=0.003;entryDx=0;entryDy=0;entryPerimeter=0;" parent="1" source="6u45t9O6w8vaVHluXfsB-60" target="6u45t9O6w8vaVHluXfsB-1" edge="1">
          <mxGeometry relative="1" as="geometry" />
        </mxCell>
        <mxCell id="6u45t9O6w8vaVHluXfsB-65" style="edgeStyle=orthogonalEdgeStyle;rounded=0;orthogonalLoop=1;jettySize=auto;html=1;exitX=0.5;exitY=0;exitDx=0;exitDy=0;entryX=0.543;entryY=1;entryDx=0;entryDy=0;entryPerimeter=0;" parent="1" source="6u45t9O6w8vaVHluXfsB-61" target="MmX11wm5HvuTR1FrTXqp-278" edge="1">
          <mxGeometry relative="1" as="geometry" />
        </mxCell>
        <mxCell id="6u45t9O6w8vaVHluXfsB-66" value="(0,N)" style="text;html=1;strokeColor=none;fillColor=none;align=left;verticalAlign=middle;whiteSpace=wrap;rounded=0;fontSize=9;" parent="1" vertex="1">
          <mxGeometry x="681.62" y="1193.65" width="25.5" height="12.5" as="geometry" />
        </mxCell>
        <mxCell id="6u45t9O6w8vaVHluXfsB-67" value="corresponde_a" style="text;html=1;strokeColor=none;fillColor=none;align=left;verticalAlign=middle;whiteSpace=wrap;rounded=0;fontSize=9;" parent="1" vertex="1">
          <mxGeometry x="653.1499999999999" y="1175.0899999999997" width="50" height="12.5" as="geometry" />
        </mxCell>
        <mxCell id="6u45t9O6w8vaVHluXfsB-68" value="es_convocado" style="text;html=1;strokeColor=none;fillColor=none;align=left;verticalAlign=middle;whiteSpace=wrap;rounded=0;fontSize=9;" parent="1" vertex="1">
          <mxGeometry x="694.99" y="837.0900000000003" width="55" height="12.5" as="geometry" />
        </mxCell>
        <mxCell id="6u45t9O6w8vaVHluXfsB-69" value="(1,1)" style="text;html=1;strokeColor=none;fillColor=none;align=left;verticalAlign=middle;whiteSpace=wrap;rounded=0;fontSize=9;" parent="1" vertex="1">
          <mxGeometry x="731.5000000000002" y="847.5300000000003" width="25.5" height="12.5" as="geometry" />
        </mxCell>
        <mxCell id="6u45t9O6w8vaVHluXfsB-70" value="convoca" style="text;html=1;strokeColor=none;fillColor=none;align=left;verticalAlign=middle;whiteSpace=wrap;rounded=0;fontSize=9;" parent="1" vertex="1">
          <mxGeometry x="724.11" y="1113.7600000000002" width="55" height="12.5" as="geometry" />
        </mxCell>
        <mxCell id="6u45t9O6w8vaVHluXfsB-71" value="(0,N)" style="text;html=1;strokeColor=none;fillColor=none;align=left;verticalAlign=middle;whiteSpace=wrap;rounded=0;fontSize=9;" parent="1" vertex="1">
          <mxGeometry x="732.6200000000002" y="1124.2000000000003" width="25.5" height="12.5" as="geometry" />
        </mxCell>
        <mxCell id="MZVE_0cD1qcKKRb-JRrY-49" value="" style="ellipse;whiteSpace=wrap;html=1;aspect=fixed;fillColor=#FFFFFF;strokeColor=#000000;fontColor=#000000;rotation=-180;" vertex="1" parent="1">
          <mxGeometry x="220.24" y="636.2399999999998" width="11" height="11" as="geometry" />
        </mxCell>
        <mxCell id="MZVE_0cD1qcKKRb-JRrY-50" value="" style="endArrow=none;html=1;rounded=0;fontSize=10;entryX=0.172;entryY=0.989;entryDx=0;entryDy=0;entryPerimeter=0;" edge="1" parent="1" target="G0A-RFpU1yBWGsKyXfba-1">
          <mxGeometry width="50" height="50" relative="1" as="geometry">
            <mxPoint x="226" y="636" as="sourcePoint" />
            <mxPoint x="226.17000000000007" y="626.0999999999998" as="targetPoint" />
          </mxGeometry>
        </mxCell>
        <mxCell id="MZVE_0cD1qcKKRb-JRrY-51" value="responsable" style="text;html=1;strokeColor=none;fillColor=none;align=left;verticalAlign=middle;whiteSpace=wrap;rounded=0;fontSize=9;" vertex="1" parent="1">
          <mxGeometry x="166.09000000000003" y="635.98" width="29.01" height="12.5" as="geometry" />
        </mxCell>
        <mxCell id="MZVE_0cD1qcKKRb-JRrY-59" value="cargo" style="text;html=1;strokeColor=none;fillColor=none;align=left;verticalAlign=middle;whiteSpace=wrap;rounded=0;fontSize=9;" vertex="1" parent="1">
          <mxGeometry x="625.0400000000002" y="1007.7200000000003" width="22.74" height="8.75" as="geometry" />
        </mxCell>
        <mxCell id="MZVE_0cD1qcKKRb-JRrY-73" value="" style="ellipse;whiteSpace=wrap;html=1;aspect=fixed;fillColor=#FFFFFF;strokeColor=#000000;fontColor=#000000;" vertex="1" parent="1">
          <mxGeometry x="613.3800000000001" y="1005.7200000000003" width="11" height="11" as="geometry" />
        </mxCell>
        <mxCell id="MZVE_0cD1qcKKRb-JRrY-76" style="edgeStyle=orthogonalEdgeStyle;rounded=0;orthogonalLoop=1;jettySize=auto;html=1;exitX=0;exitY=0.5;exitDx=0;exitDy=0;entryX=1.004;entryY=0.33;entryDx=0;entryDy=0;entryPerimeter=0;strokeColor=default;endArrow=none;endFill=0;dashed=1;" edge="1" parent="1">
          <mxGeometry relative="1" as="geometry">
            <mxPoint x="612.6700000000001" y="1011.1700000000001" as="sourcePoint" />
            <mxPoint x="579.6700000000001" y="1011.1700000000001" as="targetPoint" />
            <Array as="points">
              <mxPoint x="591.6700000000001" y="1011.1700000000001" />
              <mxPoint x="591.6700000000001" y="1011.1700000000001" />
            </Array>
          </mxGeometry>
        </mxCell>
        <mxCell id="MZVE_0cD1qcKKRb-JRrY-139" style="edgeStyle=orthogonalEdgeStyle;rounded=0;orthogonalLoop=1;jettySize=auto;html=1;exitX=0.25;exitY=1;exitDx=0;exitDy=0;entryX=0.209;entryY=-0.011;entryDx=0;entryDy=0;entryPerimeter=0;" edge="1" parent="1" source="5XtZwni91hWJkgiUzxf1-28" target="MmX11wm5HvuTR1FrTXqp-397">
          <mxGeometry relative="1" as="geometry" />
        </mxCell>
        <mxCell id="MZVE_0cD1qcKKRb-JRrY-140" style="edgeStyle=orthogonalEdgeStyle;rounded=0;orthogonalLoop=1;jettySize=auto;html=1;exitX=0.5;exitY=1;exitDx=0;exitDy=0;entryX=0.94;entryY=0.03;entryDx=0;entryDy=0;entryPerimeter=0;" edge="1" parent="1" source="MmX11wm5HvuTR1FrTXqp-315" target="MmX11wm5HvuTR1FrTXqp-278">
          <mxGeometry relative="1" as="geometry" />
        </mxCell>
        <mxCell id="MZVE_0cD1qcKKRb-JRrY-141" style="edgeStyle=orthogonalEdgeStyle;rounded=0;orthogonalLoop=1;jettySize=auto;html=1;exitX=0.5;exitY=1;exitDx=0;exitDy=0;entryX=0.074;entryY=0.03;entryDx=0;entryDy=0;entryPerimeter=0;" edge="1" parent="1" source="MmX11wm5HvuTR1FrTXqp-292" target="MmX11wm5HvuTR1FrTXqp-278">
          <mxGeometry relative="1" as="geometry" />
        </mxCell>
        <mxCell id="MZVE_0cD1qcKKRb-JRrY-143" value="&lt;font style=&quot;font-size: 7px;&quot;&gt;TipConv-Conv&lt;/font&gt;" style="shape=rhombus;perimeter=rhombusPerimeter;whiteSpace=wrap;html=1;align=center;fontStyle=1;fontSize=10;" vertex="1" parent="1">
          <mxGeometry x="804.7299999999998" y="903.2999999999998" width="60" height="60" as="geometry" />
        </mxCell>
        <mxCell id="MZVE_0cD1qcKKRb-JRrY-144" value="ID" style="text;html=1;strokeColor=none;fillColor=none;align=center;verticalAlign=middle;whiteSpace=wrap;rounded=0;fontSize=8;fontStyle=1;" vertex="1" parent="1">
          <mxGeometry x="828.51" y="946.3000000000001" width="12.43" height="14.52" as="geometry" />
        </mxCell>
        <mxCell id="MZVE_0cD1qcKKRb-JRrY-145" value="" style="endArrow=none;html=1;rounded=0;exitX=1;exitY=0;exitDx=0;exitDy=0;entryX=0;entryY=0;entryDx=0;entryDy=0;" edge="1" parent="1">
          <mxGeometry width="50" height="50" relative="1" as="geometry">
            <mxPoint x="849.7299999999998" y="948.2999999999998" as="sourcePoint" />
            <mxPoint x="819.7299999999998" y="948.2999999999998" as="targetPoint" />
          </mxGeometry>
        </mxCell>
        <mxCell id="MZVE_0cD1qcKKRb-JRrY-149" style="edgeStyle=orthogonalEdgeStyle;rounded=0;orthogonalLoop=1;jettySize=auto;html=1;exitX=0.5;exitY=0;exitDx=0;exitDy=0;entryX=0.864;entryY=1.05;entryDx=0;entryDy=0;entryPerimeter=0;" edge="1" parent="1" source="MZVE_0cD1qcKKRb-JRrY-143" target="MmX11wm5HvuTR1FrTXqp-278">
          <mxGeometry relative="1" as="geometry">
            <Array as="points">
              <mxPoint x="835" y="860" />
              <mxPoint x="794" y="860" />
            </Array>
          </mxGeometry>
        </mxCell>
        <mxCell id="MZVE_0cD1qcKKRb-JRrY-150" style="edgeStyle=orthogonalEdgeStyle;rounded=0;orthogonalLoop=1;jettySize=auto;html=1;exitX=0.5;exitY=1;exitDx=0;exitDy=0;entryX=0.005;entryY=0.369;entryDx=0;entryDy=0;entryPerimeter=0;" edge="1" parent="1" source="MZVE_0cD1qcKKRb-JRrY-143" target="Ey-6C_wnQBlg7w_FSqS6-53">
          <mxGeometry relative="1" as="geometry" />
        </mxCell>
        <mxCell id="MZVE_0cD1qcKKRb-JRrY-151" value="N:1" style="text;html=1;strokeColor=none;fillColor=none;align=center;verticalAlign=middle;whiteSpace=wrap;rounded=0;fontSize=15;fontStyle=1;rotation=90;" vertex="1" parent="1">
          <mxGeometry x="866.4400000000003" y="925.4200000000001" width="22.5" height="15.75" as="geometry" />
        </mxCell>
        <mxCell id="MZVE_0cD1qcKKRb-JRrY-153" value="" style="ellipse;whiteSpace=wrap;html=1;aspect=fixed;fillColor=#FFFFFF;strokeColor=#000000;fontColor=#000000;" vertex="1" parent="1">
          <mxGeometry x="677.05" y="180.00000000000006" width="12.05" height="12.05" as="geometry" />
        </mxCell>
        <mxCell id="MZVE_0cD1qcKKRb-JRrY-154" value="" style="endArrow=none;html=1;rounded=0;entryX=0.5;entryY=1;entryDx=0;entryDy=0;dashed=1;" edge="1" parent="1" target="MZVE_0cD1qcKKRb-JRrY-153">
          <mxGeometry width="50" height="50" relative="1" as="geometry">
            <mxPoint x="683" y="200" as="sourcePoint" />
            <mxPoint x="740.8599999999997" y="162.6899999999997" as="targetPoint" />
          </mxGeometry>
        </mxCell>
        <mxCell id="MZVE_0cD1qcKKRb-JRrY-155" value="descripción" style="text;html=1;strokeColor=none;fillColor=none;align=left;verticalAlign=middle;whiteSpace=wrap;rounded=0;fontSize=9;" vertex="1" parent="1">
          <mxGeometry x="690.6099999999999" y="180" width="75" height="12.5" as="geometry" />
        </mxCell>
        <mxCell id="MZVE_0cD1qcKKRb-JRrY-156" value="" style="ellipse;whiteSpace=wrap;html=1;aspect=fixed;fillColor=#FFFFFF;strokeColor=#000000;fontColor=#000000;" vertex="1" parent="1">
          <mxGeometry x="420.4699999999999" y="560.4100000000001" width="11" height="11" as="geometry" />
        </mxCell>
        <mxCell id="MZVE_0cD1qcKKRb-JRrY-157" value="descripción" style="text;html=1;strokeColor=none;fillColor=none;align=left;verticalAlign=middle;whiteSpace=wrap;rounded=0;fontSize=9;" vertex="1" parent="1">
          <mxGeometry x="371.55" y="558.91" width="46.74" height="12.5" as="geometry" />
        </mxCell>
        <mxCell id="MZVE_0cD1qcKKRb-JRrY-158" value="" style="endArrow=none;html=1;rounded=0;exitX=0.083;exitY=1.006;exitDx=0;exitDy=0;exitPerimeter=0;dashed=1;entryX=1;entryY=0.5;entryDx=0;entryDy=0;" edge="1" parent="1" target="MZVE_0cD1qcKKRb-JRrY-156" source="MmX11wm5HvuTR1FrTXqp-235">
          <mxGeometry width="50" height="50" relative="1" as="geometry">
            <mxPoint x="466.97" y="565.5" as="sourcePoint" />
            <mxPoint x="433.97" y="572.5" as="targetPoint" />
            <Array as="points">
              <mxPoint x="476" y="566" />
            </Array>
          </mxGeometry>
        </mxCell>
        <mxCell id="MZVE_0cD1qcKKRb-JRrY-160" value="" style="ellipse;whiteSpace=wrap;html=1;aspect=fixed;fillColor=#FFFFFF;strokeColor=#000000;fontColor=#000000;direction=east;" vertex="1" parent="1">
          <mxGeometry x="82.13" y="1193.6499999999999" width="11" height="11" as="geometry" />
        </mxCell>
        <mxCell id="MZVE_0cD1qcKKRb-JRrY-161" value="" style="endArrow=none;html=1;rounded=0;fontSize=10;entryX=0.988;entryY=0.341;entryDx=0;entryDy=0;strokeColor=#000000;fontColor=#000000;entryPerimeter=0;exitX=0.001;exitY=0.983;exitDx=0;exitDy=0;exitPerimeter=0;" edge="1" parent="1" source="MmX11wm5HvuTR1FrTXqp-397" target="MZVE_0cD1qcKKRb-JRrY-160">
          <mxGeometry width="50" height="50" relative="1" as="geometry">
            <mxPoint x="110" y="1200" as="sourcePoint" />
            <mxPoint x="103" y="1196" as="targetPoint" />
          </mxGeometry>
        </mxCell>
        <mxCell id="MZVE_0cD1qcKKRb-JRrY-162" value="image" style="text;html=1;strokeColor=none;fillColor=none;align=left;verticalAlign=middle;whiteSpace=wrap;rounded=0;fontSize=9;fontColor=#000000;direction=east;" vertex="1" parent="1">
          <mxGeometry x="53.32000000000004" y="1190.13" width="29.84" height="15.5" as="geometry" />
        </mxCell>
        <mxCell id="MZVE_0cD1qcKKRb-JRrY-165" value="" style="ellipse;whiteSpace=wrap;html=1;aspect=fixed;fillColor=#FFFFFF;strokeColor=#000000;fontColor=#000000;" vertex="1" parent="1">
          <mxGeometry x="289.49999999999994" y="176.81000000000006" width="12.05" height="12.05" as="geometry" />
        </mxCell>
        <mxCell id="MZVE_0cD1qcKKRb-JRrY-166" value="logo" style="text;html=1;strokeColor=none;fillColor=none;align=left;verticalAlign=middle;whiteSpace=wrap;rounded=0;fontSize=9;" vertex="1" parent="1">
          <mxGeometry x="304.24999999999994" y="176.81" width="45.06" height="12.5" as="geometry" />
        </mxCell>
        <mxCell id="MZVE_0cD1qcKKRb-JRrY-167" value="" style="endArrow=none;html=1;rounded=0;entryX=0.5;entryY=1;entryDx=0;entryDy=0;dashed=1;" edge="1" parent="1" target="MZVE_0cD1qcKKRb-JRrY-165">
          <mxGeometry width="50" height="50" relative="1" as="geometry">
            <mxPoint x="296" y="200" as="sourcePoint" />
            <mxPoint x="353.30999999999966" y="162.49999999999972" as="targetPoint" />
          </mxGeometry>
        </mxCell>
        <mxCell id="MZVE_0cD1qcKKRb-JRrY-168" value="" style="endArrow=none;html=1;rounded=0;fontSize=10;fontColor=#000000;strokeColor=#000000;exitX=-0.004;exitY=0.601;exitDx=0;exitDy=0;entryX=1;entryY=0.5;entryDx=0;entryDy=0;exitPerimeter=0;" edge="1" parent="1" target="MZVE_0cD1qcKKRb-JRrY-170" source="wt0K1hmHgsjhLcT-p73o-87">
          <mxGeometry width="50" height="50" relative="1" as="geometry">
            <mxPoint x="347.81" y="820.5" as="sourcePoint" />
            <mxPoint x="445.66000000000025" y="692.5300000000001" as="targetPoint" />
          </mxGeometry>
        </mxCell>
        <mxCell id="MZVE_0cD1qcKKRb-JRrY-169" value="tipoJunta" style="text;html=1;strokeColor=none;fillColor=none;align=left;verticalAlign=middle;whiteSpace=wrap;rounded=0;fontSize=9;" vertex="1" parent="1">
          <mxGeometry x="268.92" y="806.75" width="37.5" height="12.5" as="geometry" />
        </mxCell>
        <mxCell id="MZVE_0cD1qcKKRb-JRrY-170" value="" style="ellipse;whiteSpace=wrap;html=1;aspect=fixed;fillColor=#FFFFFF;strokeColor=#000000;fontColor=#000000;" vertex="1" parent="1">
          <mxGeometry x="309.97" y="807.58" width="11" height="11" as="geometry" />
        </mxCell>
        <mxCell id="MZVE_0cD1qcKKRb-JRrY-171" value="" style="endArrow=none;html=1;rounded=0;fontSize=10;fontColor=#000000;strokeColor=#000000;exitX=-0.004;exitY=0.601;exitDx=0;exitDy=0;entryX=1;entryY=0.5;entryDx=0;entryDy=0;exitPerimeter=0;" edge="1" parent="1" target="MZVE_0cD1qcKKRb-JRrY-173">
          <mxGeometry width="50" height="50" relative="1" as="geometry">
            <mxPoint x="348.9" y="826.73" as="sourcePoint" />
            <mxPoint x="446.56000000000023" y="706.2600000000001" as="targetPoint" />
          </mxGeometry>
        </mxCell>
        <mxCell id="MZVE_0cD1qcKKRb-JRrY-172" value="tipoComisión" style="text;html=1;strokeColor=none;fillColor=none;align=left;verticalAlign=middle;whiteSpace=wrap;rounded=0;fontSize=9;" vertex="1" parent="1">
          <mxGeometry x="253.82" y="820.48" width="37.5" height="12.5" as="geometry" />
        </mxCell>
        <mxCell id="MZVE_0cD1qcKKRb-JRrY-173" value="" style="ellipse;whiteSpace=wrap;html=1;aspect=fixed;fillColor=#FFFFFF;strokeColor=#000000;fontColor=#000000;" vertex="1" parent="1">
          <mxGeometry x="310.87" y="821.3100000000001" width="11" height="11" as="geometry" />
        </mxCell>
      </root>
    </mxGraphModel>
  </diagram>
</mxfile>
